<svg version="1.1" id="Layer_1" xmlns="http://www.w3.org/2000/svg" xmlns:xlink="http://www.w3.org/1999/xlink" x="0px" y="0px"
	 width="100%" viewBox="0 0 2172 1257" enable-background="new 0 0 2172 1257" xml:space="preserve">
<path fill="transparent" opacity="1.000000" stroke="none" 
	d="
M2173.000000,1180.000000 
	C2173.000000,1205.997681 2173.000000,1231.995483 2173.000000,1257.994873 
	C1449.065796,1257.996582 725.131714,1257.996582 1.098773,1257.996582 
	C1.098773,839.102661 1.098773,420.205292 1.098773,1.000000 
	C356.032654,1.000000 711.065430,1.000000 1066.493164,1.419795 
	C1065.086060,2.226123 1063.299561,2.827782 1061.479126,2.960373 
	C1055.045898,3.428933 1048.528320,3.262053 1042.179932,4.232820 
	C1035.148315,5.308086 1028.290283,7.475484 1021.314209,8.968886 
	C1014.224976,10.486517 1006.960083,11.318958 999.999573,13.264943 
	C992.586792,15.337328 985.451599,18.394445 978.175293,20.965199 
	C968.589783,24.351809 958.716980,27.080006 949.455139,31.189636 
	C937.577881,36.459732 926.031250,42.541580 914.632568,48.802269 
	C905.523071,53.805557 896.699097,59.374462 888.024658,65.110107 
	C880.553406,70.050255 873.392700,75.475090 866.240967,80.879234 
	C859.198730,86.200485 851.608704,91.061134 845.546692,97.362625 
	C830.814514,112.676643 814.207275,126.233734 801.934387,143.903976 
	C795.705200,152.872726 788.400574,161.094330 782.167175,170.060425 
	C776.336975,178.446503 770.988831,187.205490 765.960022,196.100784 
	C760.348083,206.027603 754.893799,216.093246 750.195435,226.471741 
	C746.144104,235.420776 743.209045,244.878891 739.855835,254.139206 
	C736.205322,264.220428 732.237976,274.212097 729.163818,284.469147 
	C726.556702,293.167755 724.944885,302.171661 723.048279,311.073608 
	C721.906128,316.434387 720.854065,321.830933 720.130188,327.260559 
	C718.930237,336.262024 716.970154,345.330963 717.206970,354.322052 
	C717.805908,377.061584 715.383362,399.790649 718.659119,422.593079 
	C720.656067,436.493439 721.313538,450.577057 724.954468,464.253387 
	C727.082886,472.248383 728.716492,480.378479 730.960815,488.338409 
	C733.759399,498.264191 736.712952,508.161102 740.054321,517.914673 
	C743.198059,527.091675 746.486206,536.271240 750.528870,545.073975 
	C754.880737,554.549927 759.856445,563.782227 765.157410,572.768372 
	C771.328674,583.229919 778.008850,593.401855 784.740662,603.518066 
	C788.493347,609.157410 792.827759,614.407654 796.849548,619.870422 
	C801.530090,626.227844 805.360535,633.447266 810.950073,638.855957 
	C829.634033,656.935608 846.736023,676.769897 868.546875,691.476501 
	C877.642090,697.609253 885.960083,704.928955 895.226990,710.763062 
	C904.858765,716.826843 915.338135,721.525269 925.217407,727.218933 
	C941.491089,736.597839 958.997498,743.158386 976.439148,749.790283 
	C986.208191,753.504822 996.369263,756.345032 1006.542053,758.797913 
	C1017.165955,761.359619 1027.995483,763.102722 1038.777466,764.957764 
	C1042.970703,765.679199 1047.296875,765.588501 1051.531860,766.114868 
	C1058.410156,766.969849 1065.290161,769.015076 1072.121826,768.826538 
	C1098.817261,768.090088 1125.653198,771.608521 1152.213989,766.089478 
	C1160.897217,764.285156 1169.838501,763.752014 1178.569336,762.137939 
	C1185.756226,760.809326 1192.806030,758.739746 1199.917725,757.002991 
	C1205.533447,755.631470 1211.267944,754.621704 1216.739258,752.813843 
	C1224.411499,750.278625 1231.889160,747.154297 1239.448242,744.277222 
	C1247.754761,741.115601 1256.285767,738.430176 1264.306030,734.658875 
	C1273.704834,730.239380 1282.656372,724.869263 1291.805908,719.918884 
	C1295.728149,717.796753 1299.916016,716.056396 1303.537842,713.509338 
	C1312.429443,707.256287 1321.067383,700.641907 1329.798340,694.160828 
	C1338.296021,687.852783 1347.800781,682.515137 1355.064453,675.010376 
	C1370.749023,658.805359 1388.393799,644.423645 1401.383911,625.617126 
	C1408.372803,615.498962 1416.755981,606.340759 1423.691895,596.190247 
	C1429.733032,587.349487 1434.949097,577.893494 1439.929199,568.394531 
	C1444.413208,559.841919 1447.801025,550.718811 1452.185425,542.108643 
	C1457.096558,532.464233 1461.325562,522.662415 1464.236206,512.181824 
	C1467.319092,501.081055 1471.713745,490.346344 1474.847046,479.257294 
	C1477.414307,470.171631 1479.383057,460.866150 1480.869751,451.538971 
	C1482.660156,440.306458 1484.936401,428.926971 1484.750244,417.648285 
	C1484.293213,389.957001 1487.778442,362.113678 1482.076660,334.570587 
	C1480.663940,327.746796 1480.125000,320.746674 1478.985474,313.860504 
	C1477.930176,307.483459 1476.864868,301.087769 1475.330322,294.816162 
	C1473.905884,288.994568 1471.739868,283.358673 1470.114502,277.580811 
	C1468.593872,272.175476 1467.437378,266.668457 1465.961670,261.249481 
	C1464.958008,257.563568 1463.966431,253.829636 1462.467651,250.332275 
	C1458.924927,242.066345 1455.143921,233.900269 1451.343506,225.747803 
	C1447.937744,218.441986 1444.540039,211.124084 1440.837402,203.967529 
	C1437.423584,197.369034 1433.738647,190.900635 1429.931030,184.519409 
	C1426.781982,179.241409 1423.384399,174.102280 1419.907471,169.031586 
	C1415.354004,162.390854 1410.832397,155.707306 1405.877319,149.370468 
	C1402.604248,145.184677 1398.593384,141.575912 1394.930420,137.360291 
	C1398.965576,131.883163 1403.477295,127.058212 1406.867065,121.543701 
	C1410.527222,115.589371 1413.100220,108.971245 1416.216187,102.676788 
	C1421.357300,92.292160 1424.404053,81.340820 1423.867920,69.744041 
	C1423.613037,64.232544 1422.268799,58.699650 1420.799561,53.346176 
	C1420.055908,50.636333 1418.500977,46.966988 1416.333984,46.053482 
	C1410.052490,43.405575 1403.382324,40.955479 1396.668701,40.222183 
	C1385.925171,39.048729 1375.173584,40.172729 1365.129639,44.967293 
	C1359.088135,47.851292 1352.633911,50.019947 1346.954590,53.478249 
	C1338.606934,58.561474 1330.786133,64.510010 1322.444580,69.895569 
	C1318.710205,67.482971 1315.307007,65.208191 1311.826904,63.058128 
	C1304.468750,58.512329 1297.201416,53.796570 1289.653809,49.586380 
	C1281.090820,44.809845 1272.408691,40.190815 1263.504639,36.098873 
	C1255.715820,32.519424 1247.548462,29.763422 1239.546753,26.647532 
	C1230.445679,23.103537 1221.494873,19.079187 1212.197144,16.161310 
	C1203.236816,13.349321 1193.925659,11.645249 1184.748657,9.542074 
	C1182.831421,9.102718 1180.800659,9.176212 1178.866211,8.791820 
	C1171.062744,7.241212 1163.323486,5.295728 1155.468384,4.101676 
	C1149.777344,3.236598 1143.935303,3.394458 1138.176758,2.906410 
	C1137.402832,2.840819 1136.723267,1.662861 1136.000000,1.000002 
	C1481.603882,1.000000 1827.207886,1.000000 2173.000000,1.000000 
	C2173.000000,392.699371 2173.000000,784.398743 2172.683838,1176.401001 
	C2167.633545,1166.239502 2162.224365,1156.016846 2158.365967,1145.239014 
	C2154.902344,1135.563477 2153.251221,1125.249023 2150.607666,1115.267578 
	C2146.557861,1099.977539 2141.149902,1085.274048 2131.862061,1074.251831 
	C2138.649658,1065.555054 2145.752197,1058.057129 2150.945557,1049.412231 
	C2158.149170,1037.421143 2159.872803,1024.040405 2158.151855,1009.938049 
	C2156.128174,993.357239 2149.446777,979.438232 2136.366943,969.291565 
	C2119.923340,956.535217 2100.185059,952.261658 2080.003906,951.225647 
	C2064.453125,950.427307 2048.776367,951.266357 2033.196167,952.118408 
	C2019.927124,952.843994 2006.715698,954.626404 1993.347412,955.954407 
	C1993.347412,1030.874146 1993.347412,1105.251221 1993.347412,1179.736450 
	C2012.284424,1179.736450 2030.873047,1179.736450 2050.085449,1179.736450 
	C2050.085449,1151.434937 2050.085449,1123.388916 2050.085449,1095.002686 
	C2054.516357,1095.002686 2058.371582,1094.623047 2062.124756,1095.081177 
	C2070.083252,1096.052856 2078.010498,1096.888306 2084.114502,1103.452393 
	C2090.909668,1110.760132 2092.267578,1120.088745 2094.998291,1128.965942 
	C2099.669189,1144.151489 2104.284180,1159.354614 2109.044189,1174.512329 
	C2110.212402,1178.232300 2112.412354,1180.210693 2117.004395,1180.132446 
	C2135.665039,1179.814087 2154.333984,1180.000000 2173.000000,1180.000000 
M544.499084,1077.998047 
	C541.013916,1068.262207 537.480591,1058.543335 534.052490,1048.787354 
	C523.333923,1018.283875 512.622314,987.777710 502.009918,957.237183 
	C500.915100,954.086426 499.284424,952.894775 495.874146,952.925354 
	C478.044678,953.085510 460.212555,953.064392 442.382538,952.939331 
	C439.259827,952.917419 437.891968,953.825623 436.823212,956.953369 
	C429.074005,979.631836 420.983246,1002.193176 413.111938,1024.830322 
	C399.689087,1063.432861 386.352753,1102.065552 372.967224,1140.681152 
	C370.754669,1147.063965 368.476257,1153.424072 366.228271,1159.794800 
	C365.762268,1159.747803 365.296295,1159.700806 364.830322,1159.653931 
	C362.201569,1150.533325 359.680634,1141.380005 356.918884,1132.299927 
	C352.725800,1118.513428 348.836273,1104.604980 343.874390,1091.094849 
	C341.454803,1084.506714 336.902740,1078.701782 333.316162,1072.542236 
	C356.452911,1054.460571 365.334473,1029.224854 358.595459,1001.095337 
	C355.474792,988.069153 348.790588,977.225586 338.281921,969.213806 
	C321.735260,956.598755 302.074951,952.241882 281.893646,951.222839 
	C266.343018,950.437744 250.668671,951.262878 235.090469,952.119873 
	C221.832275,952.849243 208.632782,954.645691 195.375412,955.973267 
	C195.375412,1030.945068 195.375412,1105.315063 195.375412,1179.710327 
	C214.339920,1179.710327 232.927521,1179.710327 252.134766,1179.710327 
	C252.134766,1151.383789 252.134766,1123.339722 252.134766,1095.001343 
	C256.402588,1095.001343 260.086426,1094.674316 263.691589,1095.067871 
	C271.846100,1095.958008 279.928009,1096.783081 286.155792,1103.498901 
	C292.938324,1110.813110 294.278259,1120.145508 297.003967,1129.024170 
	C301.666351,1144.211304 306.290100,1159.410400 311.052368,1174.566162 
	C312.228058,1178.307739 314.502319,1180.163208 319.056305,1180.128296 
	C350.716797,1179.885254 382.380646,1179.906250 414.041626,1180.114136 
	C418.166718,1180.141235 419.797638,1178.709351 420.986176,1175.037964 
	C426.498688,1158.009644 432.361023,1141.093872 437.811554,1124.046387 
	C438.809601,1120.924683 440.098022,1119.908203 443.291443,1119.934692 
	C460.121307,1120.074097 476.953674,1120.080200 493.783386,1119.930420 
	C497.041595,1119.901489 498.180481,1121.068237 499.202759,1124.117798 
	C505.450592,1142.755615 512.014343,1161.287720 518.443604,1179.770996 
	C539.074463,1179.770996 559.364502,1179.770996 579.968872,1179.770996 
	C579.717346,1178.557129 579.620789,1177.599731 579.319275,1176.712036 
	C576.416016,1168.163574 573.543152,1159.603638 570.537903,1151.090820 
	C562.015747,1126.949707 553.435303,1102.829102 544.499084,1077.998047 
M1678.491333,1180.000000 
	C1682.910522,1180.000000 1687.329590,1180.000000 1692.000000,1180.000000 
	C1692.000000,1156.393555 1692.585571,1133.558105 1691.714111,1110.778564 
	C1691.361450,1101.556152 1695.550049,1096.007812 1701.431885,1090.328247 
	C1706.700439,1098.072144 1711.948486,1105.749512 1717.159302,1113.452148 
	C1731.247681,1134.277100 1745.408813,1155.054199 1759.301880,1176.008789 
	C1761.339966,1179.082764 1763.432739,1180.067627 1766.940308,1180.063232 
	C1834.754395,1179.977905 1902.568604,1180.000000 1970.382812,1180.000000 
	C1972.142700,1180.000000 1973.902466,1180.000000 1975.727905,1180.000000 
	C1975.727905,1163.025879 1975.727905,1146.773193 1975.727905,1129.904907 
	C1944.089966,1129.904907 1912.717285,1129.904907 1881.269287,1129.904907 
	C1881.269287,1115.365967 1881.269287,1101.446167 1881.269287,1086.909546 
	C1909.571533,1086.909546 1937.612061,1086.909546 1965.733154,1086.909546 
	C1965.733154,1070.370117 1965.733154,1054.450806 1965.733154,1037.914551 
	C1937.433594,1037.914551 1909.393066,1037.914551 1881.265747,1037.914551 
	C1881.265747,1026.040405 1881.265747,1014.786682 1881.265747,1002.917114 
	C1910.897461,1002.917114 1940.270752,1002.917114 1969.737305,1002.917114 
	C1969.737305,986.044922 1969.737305,969.792297 1969.737305,953.000000 
	C1967.698364,953.000000 1965.914185,953.000000 1964.130127,953.000000 
	C1896.149292,953.000000 1828.168457,953.045349 1760.187988,952.886597 
	C1756.139160,952.877136 1753.656372,954.407837 1751.362061,957.239685 
	C1744.213257,966.063049 1737.011353,974.843201 1729.849121,983.655640 
	C1721.442505,993.999207 1713.093994,1004.390320 1704.643311,1014.697632 
	C1700.765015,1019.427917 1696.702637,1024.007324 1691.760498,1029.780273 
	C1691.760498,1003.236084 1691.760498,978.319824 1691.760498,953.416138 
	C1672.636597,953.416138 1653.932495,953.416138 1635.310547,953.416138 
	C1635.310547,1029.073608 1635.310547,1104.314453 1635.310547,1180.000000 
	C1649.576050,1180.000000 1663.535400,1180.000000 1678.491333,1180.000000 
M806.000000,1107.500122 
	C806.000000,1100.745239 806.000000,1093.990479 806.000000,1086.812988 
	C834.726501,1086.812988 862.651489,1086.812988 890.588440,1086.812988 
	C890.588440,1070.319214 890.588440,1054.278687 890.588440,1037.794189 
	C862.254456,1037.794189 834.329468,1037.794189 806.421143,1037.794189 
	C806.421143,1025.964478 806.421143,1014.589294 806.421143,1002.775146 
	C836.098083,1002.775146 865.356201,1002.775146 894.569336,1002.775146 
	C894.569336,985.947998 894.569336,969.574219 894.569336,953.230835 
	C893.645630,953.128662 893.149963,953.025940 892.654297,953.025818 
	C825.322937,953.012512 757.991638,953.025146 690.660339,952.938354 
	C687.730713,952.934631 686.781250,954.159302 685.908447,956.689392 
	C676.326294,984.467834 666.577698,1012.188843 656.944092,1039.949585 
	C650.406494,1058.788818 643.979797,1077.666504 637.274170,1097.194824 
	C636.763611,1096.350952 636.409485,1095.955322 636.261536,1095.493530 
	C630.853149,1078.617798 625.526123,1061.715820 620.058411,1044.859253 
	C610.435181,1015.191650 600.759094,985.540955 590.946655,955.935730 
	C590.533142,954.687988 588.532104,953.139404 587.257874,953.127686 
	C567.768372,952.949158 548.276733,953.003479 528.412720,953.003479 
	C529.016418,955.160950 529.432434,957.056213 530.072632,958.872375 
	C536.348450,976.677063 542.741638,994.440613 548.946960,1012.269714 
	C560.494324,1045.447510 571.957703,1078.654907 583.418640,1111.862793 
	C590.756531,1133.124023 598.030762,1154.407104 605.323364,1175.684082 
	C606.135986,1178.054932 606.684875,1180.130981 610.181152,1180.089355 
	C627.011597,1179.888184 643.846375,1180.059448 660.677551,1179.887939 
	C662.070618,1179.873779 664.207886,1178.598755 664.707397,1177.380005 
	C667.693176,1170.095337 670.285828,1162.650146 673.036377,1155.268433 
	C682.491516,1129.892822 691.920776,1104.507324 701.428467,1079.151489 
	C713.241211,1047.648071 725.118530,1016.169067 736.976013,984.682556 
	C740.737854,974.693481 744.525574,964.714172 748.301392,954.730347 
	C748.643555,954.807495 748.985779,954.884583 749.327942,954.961731 
	C749.327942,1029.875610 749.327942,1104.789673 749.327942,1179.700928 
	C800.022888,1179.700928 850.277710,1179.700928 900.607605,1179.700928 
	C900.607605,1163.024902 900.607605,1146.651123 900.607605,1129.832520 
	C868.959961,1129.832520 837.702087,1129.832520 806.000000,1129.832520 
	C806.000000,1122.425659 806.000000,1115.462891 806.000000,1107.500122 
M1396.000000,1031.536621 
	C1395.983521,1029.537720 1396.068359,1027.531982 1395.934448,1025.541016 
	C1394.981445,1011.380859 1393.968262,997.224854 1393.005249,983.065369 
	C1392.335327,973.215820 1391.714600,963.362854 1391.091553,953.813538 
	C1390.249268,953.396545 1389.960571,953.129028 1389.671265,953.128235 
	C1369.345947,953.073181 1349.020020,952.972839 1328.696533,953.143860 
	C1327.245850,953.156006 1325.028931,954.870972 1324.486694,956.295898 
	C1314.508179,982.516541 1304.687378,1008.797607 1294.927002,1035.100586 
	C1288.958008,1051.185913 1283.146729,1067.329712 1276.917603,1084.397949 
	C1275.353149,1079.225342 1274.163452,1074.691895 1272.619751,1070.282349 
	C1259.444214,1032.644531 1246.167480,995.041870 1233.046265,957.385132 
	C1231.859741,953.979919 1230.103760,952.882202 1226.529663,952.917664 
	C1208.482422,953.096741 1190.432251,953.000000 1172.383179,953.000000 
	C1170.425171,953.000000 1168.467041,953.000000 1166.064331,953.000000 
	C1165.687622,958.372925 1165.322998,963.274658 1165.005127,968.179382 
	C1164.631104,973.951599 1164.387573,979.733704 1163.929565,985.498962 
	C1162.663574,1001.436218 1161.291138,1017.364990 1160.009644,1033.301025 
	C1159.295776,1042.179565 1158.655518,1051.064331 1158.024780,1059.949219 
	C1156.669189,1079.046387 1155.279053,1098.141724 1154.024414,1117.245605 
	C1153.233765,1129.286255 1152.764404,1141.348022 1151.951904,1153.386963 
	C1151.531128,1159.619629 1150.599976,1165.816284 1150.055298,1172.042969 
	C1149.831421,1174.602905 1150.018188,1177.198975 1150.018188,1179.677979 
	C1168.753540,1179.677979 1186.673340,1179.677979 1204.497437,1179.677979 
	C1205.019653,1175.109863 1205.712036,1170.882812 1205.953125,1166.630127 
	C1207.038574,1147.478638 1208.057007,1128.322876 1208.974976,1109.162598 
	C1209.450806,1099.229492 1209.573730,1089.279663 1210.033813,1079.345581 
	C1210.349243,1072.536011 1210.970581,1065.740479 1211.485718,1058.511353 
	C1218.772705,1079.618652 1225.904785,1100.363525 1233.098267,1121.087036 
	C1239.287842,1138.917847 1245.505127,1156.739502 1251.859497,1174.511841 
	C1252.351196,1175.887329 1254.006714,1177.820923 1255.150024,1177.840576 
	C1268.619385,1178.073242 1282.094238,1177.990112 1295.533936,1177.990112 
	C1311.337402,1135.048950 1327.007202,1092.470947 1343.000000,1049.015259 
	C1343.000000,1054.320801 1342.906128,1058.750000 1343.018433,1063.173950 
	C1343.287720,1073.781860 1343.505005,1084.394653 1344.013794,1094.992310 
	C1344.901978,1113.487549 1345.952637,1131.975342 1347.016846,1150.461548 
	C1347.574463,1160.148315 1348.305542,1169.825073 1348.969116,1179.666260 
	C1367.874023,1179.666260 1386.257568,1179.666260 1405.333374,1179.666260 
	C1404.857788,1176.198608 1404.243896,1173.154785 1404.051636,1170.084473 
	C1402.978027,1152.932129 1402.027710,1135.771973 1400.991943,1118.617188 
	C1400.375000,1108.398560 1399.615234,1098.188354 1399.031982,1087.968018 
	C1397.977051,1069.481079 1397.006104,1050.989624 1396.000000,1031.536621 
M1430.500000,1180.000000 
	C1440.662231,1180.000000 1450.832642,1179.765381 1460.982910,1180.114868 
	C1465.078857,1180.255981 1466.778931,1178.805786 1467.978882,1175.096191 
	C1473.486206,1158.072021 1479.347778,1141.162231 1484.801392,1124.121460 
	C1485.784424,1121.050293 1486.954956,1119.901489 1490.213623,1119.930542 
	C1507.038086,1120.080322 1523.865356,1120.072021 1540.690063,1119.936157 
	C1543.864258,1119.910522 1545.149414,1120.909302 1546.190186,1124.022827 
	C1552.424316,1142.669800 1558.983154,1161.208252 1565.368042,1179.595825 
	C1586.043457,1179.595825 1606.405029,1179.595825 1627.142944,1179.595825 
	C1626.811768,1178.356445 1626.659912,1177.571045 1626.394409,1176.825928 
	C1620.999512,1161.678345 1615.547974,1146.550781 1610.194824,1131.388550 
	C1596.758057,1093.330322 1583.352783,1055.260986 1569.958374,1017.187744 
	C1562.933960,997.221436 1555.911133,977.254333 1549.011719,957.244812 
	C1547.926880,954.098755 1546.300415,952.894409 1542.884644,952.924927 
	C1524.893921,953.085449 1506.900879,953.053345 1488.909546,952.943970 
	C1486.159058,952.927246 1484.796753,953.730652 1483.939453,956.444763 
	C1481.419434,964.423340 1478.645264,972.323486 1475.879395,980.222351 
	C1465.629883,1009.493347 1455.303345,1038.737305 1445.082275,1068.018311 
	C1433.725708,1100.551636 1422.433960,1133.107788 1411.165039,1165.671631 
	C1409.592896,1170.214722 1408.311768,1174.858643 1406.728394,1180.000000 
	C1414.877686,1180.000000 1422.188843,1180.000000 1430.500000,1180.000000 
M189.000000,989.491333 
	C189.000000,977.408325 189.000000,965.325317 189.000000,953.310913 
	C126.609802,953.310913 65.026810,953.310913 3.402137,953.310913 
	C3.402137,969.997437 3.402137,986.369629 3.402137,1003.184570 
	C24.724993,1003.184570 45.649284,1003.184570 67.183090,1003.184570 
	C67.183090,1062.332520 67.183090,1121.036255 67.183090,1179.685303 
	C86.390854,1179.685303 104.978653,1179.685303 124.180855,1179.685303 
	C124.180855,1120.669800 124.180855,1061.965942 124.180855,1002.820679 
	C146.052979,1002.820679 167.310425,1002.820679 189.000000,1002.820679 
	C189.000000,998.418884 189.000000,994.453247 189.000000,989.491333 
M918.000000,1172.426514 
	C918.000000,1174.850342 918.000000,1177.274170 918.000000,1179.712158 
	C968.004883,1179.712158 1017.257385,1179.712158 1066.619995,1179.712158 
	C1066.619995,1163.048584 1066.619995,1146.675781 1066.619995,1129.859497 
	C1035.986328,1129.859497 1005.729858,1129.859497 974.857788,1129.859497 
	C974.857788,1070.709717 974.857788,1012.003845 974.857788,953.296875 
	C955.646729,953.296875 937.058472,953.296875 918.000000,953.296875 
	C918.000000,1026.210815 918.000000,1098.828857 918.000000,1172.426514 
z"/>
<path fill="#FFCA4F" opacity="1.000000" stroke="none" 
	d="
M1135.531372,1.000002 
	C1136.723267,1.662861 1137.402832,2.840819 1138.176758,2.906410 
	C1143.935303,3.394458 1149.777344,3.236598 1155.468384,4.101676 
	C1163.323486,5.295728 1171.062744,7.241212 1178.866211,8.791820 
	C1180.800659,9.176212 1182.831421,9.102718 1184.748657,9.542074 
	C1193.925659,11.645249 1203.236816,13.349321 1212.197144,16.161310 
	C1221.494873,19.079187 1230.445679,23.103537 1239.546753,26.647532 
	C1247.548462,29.763422 1255.715820,32.519424 1263.504639,36.098873 
	C1272.408691,40.190815 1281.090820,44.809845 1289.653809,49.586380 
	C1297.201416,53.796570 1304.468750,58.512329 1311.826904,63.058128 
	C1315.307007,65.208191 1318.710205,67.482971 1322.498291,70.242355 
	C1316.960938,76.790085 1310.715210,82.489532 1305.253174,88.860977 
	C1288.920410,107.913216 1272.889771,127.224457 1256.756958,146.447952 
	C1255.326294,148.152710 1254.199829,149.253082 1251.426758,148.345596 
	C1242.911133,145.558777 1234.210449,143.340881 1225.602417,140.831284 
	C1222.030273,139.789902 1218.521606,138.532761 1214.964355,137.438217 
	C1205.689697,134.584473 1196.403931,131.766357 1187.083740,128.580353 
	C1188.678101,126.530403 1190.421509,124.925255 1191.919800,123.117226 
	C1194.360596,120.172226 1196.641235,117.094688 1199.363525,114.039207 
	C1205.680786,110.363411 1206.495483,105.731339 1201.912109,101.076241 
	C1195.908691,94.978607 1189.933105,88.845779 1183.707764,82.980431 
	C1182.502197,81.844444 1179.839478,80.979836 1178.484741,81.536682 
	C1175.462158,82.778954 1172.841064,84.997780 1169.796631,87.056328 
	C1167.078735,89.603569 1164.232544,91.622063 1162.238892,94.280121 
	C1157.240356,100.944420 1152.627686,107.898247 1147.450684,114.769943 
	C1143.444336,113.897614 1139.804932,113.132668 1136.259155,112.058548 
	C1125.402588,108.769821 1114.582275,105.362396 1103.874023,101.658180 
	C1108.870117,96.796959 1113.739746,92.278671 1118.852539,87.597748 
	C1120.520020,85.495102 1122.095825,83.646095 1123.329712,81.591728 
	C1124.823853,79.104103 1125.560425,77.025795 1122.554077,74.370949 
	C1116.162720,68.726913 1110.360840,62.414364 1104.332764,56.360378 
	C1098.902832,50.906944 1095.398193,51.324181 1090.640259,58.021927 
	C1089.228394,58.998722 1088.141357,59.903187 1087.118408,60.875168 
	C1078.161377,69.385277 1070.401733,78.813011 1064.508789,89.959183 
	C1060.392822,88.897980 1056.633545,87.947243 1052.948853,86.764275 
	C1041.250610,83.008690 1029.601318,79.099648 1017.891052,75.382408 
	C1010.633789,73.078690 1003.257751,71.147118 996.010803,68.813194 
	C985.261047,65.351151 974.593567,61.633762 963.843567,58.172359 
	C962.790405,57.833225 960.993103,58.093998 960.250244,58.810966 
	C957.624451,61.345169 955.307007,64.198784 952.511963,66.944580 
	C951.405518,67.756477 950.770508,68.713486 949.894592,69.325890 
	C946.357117,71.799057 946.169189,73.764565 950.312500,75.890717 
	C952.539062,77.033295 954.347778,78.966789 956.418640,80.439941 
	C965.121948,86.631210 973.818115,92.833542 982.582703,98.937340 
	C993.608215,106.615616 1004.779968,114.086006 1015.738770,121.857391 
	C1028.752563,131.086014 1041.527466,140.651550 1054.554688,149.860809 
	C1065.491699,157.592422 1076.738159,164.886292 1087.674561,172.618774 
	C1102.535767,183.126450 1117.226318,193.875687 1132.001343,204.505585 
	C1142.719360,212.216583 1153.382324,220.007172 1164.214722,227.554428 
	C1169.597534,231.304749 1175.306152,234.587494 1180.893799,238.442841 
	C1177.609253,243.093323 1174.431885,247.494247 1170.962158,251.651428 
	C1160.203125,264.542511 1149.504028,277.490143 1138.464355,290.138977 
	C1123.309692,307.502563 1107.895874,324.640717 1092.532959,341.821564 
	C1081.100098,354.607452 1069.538696,367.278595 1058.100952,380.060211 
	C1053.319336,385.403687 1050.375122,385.958191 1044.599487,383.536346 
	C1033.171387,378.744293 1021.601807,374.285828 1010.049927,369.794312 
	C1000.270508,365.991913 990.440186,362.319489 980.609985,358.649780 
	C979.781860,358.340637 978.428528,358.064789 977.919312,358.490814 
	C973.512512,362.177673 969.243286,366.029053 964.570923,369.854919 
	C962.538452,371.175690 960.868164,372.472992 958.807251,374.073700 
	C969.268066,381.162811 979.114990,387.726929 988.844849,394.460266 
	C998.663757,401.255280 1008.412292,408.154633 1018.097656,415.138580 
	C1021.931580,417.903168 1025.511963,421.019165 1029.088867,424.344360 
	C1028.135010,426.410919 1026.840210,428.043274 1026.588623,429.823090 
	C1026.310303,431.793671 1026.500854,434.141327 1027.370728,435.883728 
	C1028.425171,437.995941 1030.296875,438.408386 1032.466064,436.435791 
	C1033.563477,435.437775 1035.484253,435.345001 1037.439941,434.784485 
	C1039.006104,435.313751 1040.558594,435.607025 1041.256226,436.539673 
	C1044.406494,440.750854 1047.278442,445.168823 1050.317383,449.464996 
	C1058.114624,460.488373 1065.930664,471.498566 1073.771851,482.490784 
	C1078.929810,489.721497 1084.144531,496.911835 1089.641113,504.547302 
	C1091.211426,502.320221 1092.390015,500.648621 1093.819214,498.710815 
	C1096.322754,495.558899 1098.135986,492.117432 1100.925659,489.910095 
	C1105.819092,486.038208 1104.104614,481.746887 1102.641113,477.421997 
	C1101.043701,472.701019 1098.984009,468.138641 1097.250122,463.461060 
	C1094.998291,457.385681 1092.996582,451.215454 1090.659790,445.174011 
	C1086.144897,433.501129 1081.470825,421.889862 1077.076538,410.793243 
	C1125.806152,367.054932 1173.430908,323.157501 1224.392578,282.886536 
	C1279.784424,360.938507 1334.847168,438.828613 1390.336060,517.321655 
	C1392.804932,514.663574 1394.945190,512.359497 1397.388550,509.879547 
	C1400.382202,506.823425 1403.072754,503.943176 1405.568359,501.271454 
	C1404.766602,498.962524 1404.005005,497.013245 1403.410767,495.014191 
	C1401.187622,487.534821 1399.125122,480.006226 1396.806396,472.557068 
	C1392.949219,460.165894 1388.928711,447.825653 1385.003540,435.455536 
	C1383.776855,431.589355 1382.667725,427.686005 1381.448975,423.817230 
	C1378.826050,415.490143 1376.166870,407.174408 1373.722656,398.539795 
	C1378.035645,395.557190 1382.496704,393.294434 1386.183960,390.130188 
	C1392.502197,384.708038 1398.336914,378.722168 1404.697021,372.911621 
	C1407.233276,369.783752 1409.447144,366.717316 1412.180054,362.932007 
	C1404.705078,355.805206 1397.432495,349.357391 1390.752563,342.345123 
	C1385.636963,336.975250 1381.928711,338.178162 1375.755371,344.949646 
	C1370.946533,350.060272 1366.437134,354.971283 1361.610840,359.719788 
	C1360.592529,358.124329 1359.675781,356.755737 1359.225708,355.247803 
	C1356.758667,346.982666 1354.492554,338.657013 1351.980957,330.405884 
	C1350.533081,325.649048 1348.752197,320.993500 1347.494507,316.249084 
	C1358.972168,310.061615 1368.753418,302.309998 1376.957153,292.089020 
	C1378.028687,290.786377 1378.904663,289.801483 1379.801147,288.835754 
	C1383.827026,284.499237 1383.831421,283.233643 1379.747192,279.125244 
	C1373.942383,273.286011 1368.152466,267.431549 1362.300781,261.639435 
	C1357.297363,256.686920 1352.375732,257.627045 1348.589111,264.122620 
	C1343.825439,268.182770 1339.413574,272.227173 1334.780029,275.943359 
	C1331.788452,267.174255 1328.955811,258.753326 1326.262939,250.287903 
	C1322.190308,237.484665 1318.167847,224.664749 1314.282471,211.804016 
	C1313.946899,210.693268 1314.347046,208.713348 1315.161011,208.003769 
	C1322.134155,201.924789 1329.347046,196.121796 1336.363403,190.091156 
	C1351.015137,177.497803 1365.664307,164.899353 1380.157837,152.125443 
	C1385.309814,147.584763 1390.007812,142.529297 1394.912964,137.708817 
	C1398.593384,141.575912 1402.604248,145.184677 1405.877319,149.370468 
	C1410.832397,155.707306 1415.354004,162.390854 1419.907471,169.031586 
	C1423.384399,174.102280 1426.781982,179.241409 1429.931030,184.519409 
	C1433.738647,190.900635 1437.423584,197.369034 1440.837402,203.967529 
	C1444.540039,211.124084 1447.937744,218.441986 1451.343506,225.747803 
	C1455.143921,233.900269 1458.924927,242.066345 1462.467651,250.332275 
	C1463.966431,253.829636 1464.958008,257.563568 1465.961670,261.249481 
	C1467.437378,266.668457 1468.593872,272.175476 1470.114502,277.580811 
	C1471.739868,283.358673 1473.905884,288.994568 1475.330322,294.816162 
	C1476.864868,301.087769 1477.930176,307.483459 1478.985474,313.860504 
	C1480.125000,320.746674 1480.663940,327.746796 1482.076660,334.570587 
	C1487.778442,362.113678 1484.293213,389.957001 1484.750244,417.648285 
	C1484.936401,428.926971 1482.660156,440.306458 1480.869751,451.538971 
	C1479.383057,460.866150 1477.414307,470.171631 1474.847046,479.257294 
	C1471.713745,490.346344 1467.319092,501.081055 1464.236206,512.181824 
	C1461.325562,522.662415 1457.096558,532.464233 1452.185425,542.108643 
	C1447.801025,550.718811 1444.413208,559.841919 1439.929199,568.394531 
	C1434.949097,577.893494 1429.733032,587.349487 1423.691895,596.190247 
	C1416.755981,606.340759 1408.372803,615.498962 1401.383911,625.617126 
	C1388.393799,644.423645 1370.749023,658.805359 1355.064453,675.010376 
	C1347.800781,682.515137 1338.296021,687.852783 1329.798340,694.160828 
	C1321.067383,700.641907 1312.429443,707.256287 1303.537842,713.509338 
	C1299.916016,716.056396 1295.728149,717.796753 1291.805908,719.918884 
	C1282.656372,724.869263 1273.704834,730.239380 1264.306030,734.658875 
	C1256.285767,738.430176 1247.754761,741.115601 1239.448242,744.277222 
	C1231.889160,747.154297 1224.411499,750.278625 1216.739258,752.813843 
	C1211.267944,754.621704 1205.533447,755.631470 1199.917725,757.002991 
	C1192.806030,758.739746 1185.756226,760.809326 1178.569336,762.137939 
	C1169.838501,763.752014 1160.897217,764.285156 1152.213989,766.089478 
	C1125.653198,771.608521 1098.817261,768.090088 1072.121826,768.826538 
	C1065.290161,769.015076 1058.410156,766.969849 1051.531860,766.114868 
	C1047.296875,765.588501 1042.970703,765.679199 1038.777466,764.957764 
	C1027.995483,763.102722 1017.165955,761.359619 1006.542053,758.797913 
	C996.369263,756.345032 986.208191,753.504822 976.439148,749.790283 
	C958.997498,743.158386 941.491089,736.597839 925.217407,727.218933 
	C915.338135,721.525269 904.858765,716.826843 895.226990,710.763062 
	C885.960083,704.928955 877.642090,697.609253 868.546875,691.476501 
	C846.736023,676.769897 829.634033,656.935608 810.950073,638.855957 
	C805.360535,633.447266 801.530090,626.227844 796.849548,619.870422 
	C792.827759,614.407654 788.493347,609.157410 784.740662,603.518066 
	C778.008850,593.401855 771.328674,583.229919 765.157410,572.768372 
	C759.856445,563.782227 754.880737,554.549927 750.528870,545.073975 
	C746.486206,536.271240 743.198059,527.091675 740.054321,517.914673 
	C736.712952,508.161102 733.759399,498.264191 730.960815,488.338409 
	C728.716492,480.378479 727.082886,472.248383 724.954468,464.253387 
	C721.313538,450.577057 720.656067,436.493439 718.659119,422.593079 
	C715.383362,399.790649 717.805908,377.061584 717.206970,354.322052 
	C716.970154,345.330963 718.930237,336.262024 720.130188,327.260559 
	C720.854065,321.830933 721.906128,316.434387 723.048279,311.073608 
	C724.944885,302.171661 726.556702,293.167755 729.163818,284.469147 
	C732.237976,274.212097 736.205322,264.220428 739.855835,254.139206 
	C743.209045,244.878891 746.144104,235.420776 750.195435,226.471741 
	C754.893799,216.093246 760.348083,206.027603 765.960022,196.100784 
	C770.988831,187.205490 776.336975,178.446503 782.167175,170.060425 
	C788.400574,161.094330 795.705200,152.872726 801.934387,143.903976 
	C814.207275,126.233734 830.814514,112.676643 845.546692,97.362625 
	C851.608704,91.061134 859.198730,86.200485 866.240967,80.879234 
	C873.392700,75.475090 880.553406,70.050255 888.024658,65.110107 
	C896.699097,59.374462 905.523071,53.805557 914.632568,48.802269 
	C926.031250,42.541580 937.577881,36.459732 949.455139,31.189636 
	C958.716980,27.080006 968.589783,24.351809 978.175293,20.965199 
	C985.451599,18.394445 992.586792,15.337328 999.999573,13.264943 
	C1006.960083,11.318958 1014.224976,10.486517 1021.314209,8.968886 
	C1028.290283,7.475484 1035.148315,5.308086 1042.179932,4.232820 
	C1048.528320,3.262053 1055.045898,3.428933 1061.479126,2.960373 
	C1063.299561,2.827782 1065.086060,2.226123 1066.944092,1.419795 
	C1089.687622,1.000000 1112.375122,1.000000 1135.531372,1.000002 
M1150.365967,615.147400 
	C1149.583008,616.105896 1148.799927,617.064453 1147.417603,618.219543 
	C1146.770630,618.816956 1146.123657,619.414429 1145.476685,620.011841 
	C1145.899414,620.280151 1146.322266,620.548462 1146.744995,620.816772 
	C1147.154907,619.870605 1147.564697,618.924500 1148.691895,617.901062 
	C1149.451294,616.924866 1150.210693,615.948669 1151.702759,614.960510 
	C1152.457153,613.962219 1153.211548,612.963867 1154.693726,612.040283 
	C1155.507568,611.078369 1156.321411,610.116516 1157.824707,609.112793 
	C1158.694946,608.194885 1159.565186,607.276978 1161.109497,606.172546 
	C1163.798096,603.487427 1166.486816,600.802368 1169.755737,597.763672 
	C1182.369385,586.105896 1195.059082,574.529175 1207.578247,562.770996 
	C1225.698608,545.752319 1243.719116,528.627136 1261.735474,511.498291 
	C1271.286865,502.417358 1280.677856,493.167267 1290.254761,484.113617 
	C1299.336914,475.527618 1308.616821,467.150208 1317.644287,458.508087 
	C1318.427246,457.758698 1318.545044,455.420685 1317.982056,454.332825 
	C1316.505127,451.479218 1314.588257,448.827637 1312.640381,446.251495 
	C1311.091309,444.202393 1309.553467,443.122772 1307.145508,445.858093 
	C1298.018921,456.225342 1288.717407,466.441223 1279.358887,476.600769 
	C1266.367798,490.703613 1253.304443,504.740356 1240.203491,518.741089 
	C1221.017822,539.244324 1201.748291,559.669067 1182.565674,580.174988 
	C1177.121826,585.994324 1171.855469,591.979614 1165.883423,598.035767 
	C1163.866577,600.631897 1161.849731,603.228027 1159.164429,605.939514 
	C1158.425293,606.942078 1157.686157,607.944641 1156.259888,609.018616 
	C1155.515869,610.020935 1154.771851,611.023254 1153.341431,612.084473 
	C1152.570312,613.067261 1151.799072,614.050049 1150.365967,615.147400 
M831.623779,561.768066 
	C832.405518,560.833435 833.187317,559.898865 834.660950,558.917542 
	C835.436890,557.941162 836.212891,556.964783 837.676880,555.957947 
	C838.479370,555.000610 839.281799,554.043274 840.758789,553.019104 
	C841.564697,552.068909 842.370667,551.118713 843.870972,550.073059 
	C845.129272,549.012878 846.387512,547.952698 848.123962,546.439697 
	C848.462402,545.671387 848.800842,544.903076 849.852173,544.071777 
	C851.105591,543.301636 852.536743,542.720032 853.584595,541.731934 
	C862.933105,532.916687 872.214172,524.029968 881.514893,515.163940 
	C896.928650,500.470551 912.314697,485.748047 927.763367,471.091492 
	C943.555115,456.109375 959.444031,441.229218 975.149719,426.157745 
	C976.143372,425.204193 976.733154,422.041107 976.120300,421.509857 
	C973.379028,419.133362 970.133423,417.338715 967.094910,415.350403 
	C965.976440,417.025787 965.234558,418.555542 964.123474,419.738495 
	C947.444519,437.495361 930.724670,455.213867 913.998474,472.926361 
	C897.272644,490.638550 880.475037,508.283447 863.825012,526.066528 
	C858.554077,531.696167 853.656372,537.675354 847.997009,543.760193 
	C847.306763,544.477905 846.616455,545.195618 845.328491,546.192505 
	C844.431763,547.314026 843.535034,548.435608 842.003662,549.815002 
	C841.254700,550.807739 840.505737,551.800476 839.051147,552.903564 
	C838.373108,553.941406 837.695068,554.979248 836.285522,555.982483 
	C835.535522,556.999084 834.785522,558.015747 833.319641,559.054504 
	C832.554321,560.042175 831.789001,561.029785 830.393921,562.180847 
	C829.749878,562.684692 829.105835,563.188538 828.461792,563.692383 
	C828.758911,563.981995 829.056030,564.271545 829.353088,564.561157 
	C829.897217,563.699890 830.441345,562.838623 831.623779,561.768066 
M861.625305,296.777618 
	C877.935303,281.454102 894.268738,266.155365 910.549255,250.800629 
	C929.586731,232.845764 948.592041,214.856796 967.584290,196.854172 
	C979.733154,185.338409 991.865662,173.804871 1003.930176,162.201050 
	C1006.603210,159.630142 1008.959045,156.729477 1011.460876,153.980621 
	C1008.556152,151.611160 1005.645203,149.249191 1002.754456,146.862839 
	C1002.386719,146.559204 1002.132324,146.120834 1001.811707,145.756927 
	C1000.248352,143.982376 999.405457,144.131546 997.622864,146.100998 
	C984.762085,160.309357 971.705688,174.342545 958.596069,188.323196 
	C948.168762,199.443192 937.475525,210.314423 927.083862,221.467056 
	C910.771667,238.973755 894.600037,256.611633 878.397949,274.220673 
	C872.262085,280.889191 866.206726,287.631775 859.434998,294.423523 
	C854.701904,299.397888 849.968750,304.372253 845.235596,309.346588 
	C845.577393,309.715149 845.919189,310.083679 846.260986,310.452209 
	C852.252441,307.264282 856.689270,302.211121 861.625305,296.777618 
M1125.500000,699.060608 
	C1131.495483,699.057922 1137.491821,699.109192 1143.486328,699.031006 
	C1146.760010,698.988220 1151.063477,695.072327 1150.511108,692.270508 
	C1148.771240,683.445496 1141.693970,675.140259 1130.702515,680.852783 
	C1125.440674,674.806946 1119.884155,669.080139 1110.764038,669.669250 
	C1110.144409,669.709290 1109.180908,668.318665 1108.791626,667.414917 
	C1105.852295,660.590820 1103.977783,653.086182 1099.949707,646.999023 
	C1091.408203,634.091125 1079.082886,626.045715 1063.335083,625.037781 
	C1056.771484,624.617676 1049.948975,625.656738 1043.469604,627.067688 
	C1031.523315,629.669189 1022.399597,636.630066 1015.777161,646.970215 
	C1014.671997,648.695801 1012.746399,650.712463 1010.927612,651.028687 
	C1000.973145,652.759094 993.250916,657.782715 986.778809,665.368896 
	C985.270020,667.137451 982.455688,667.915039 980.114624,668.818420 
	C977.421387,669.857666 974.397339,670.154541 971.851379,671.437500 
	C965.773254,674.500427 963.134949,679.886963 961.209229,686.357605 
	C958.880920,694.180847 961.508667,699.055542 969.616638,699.056702 
	C1021.244446,699.063965 1072.872192,699.060547 1125.500000,699.060608 
M824.774658,342.144867 
	C820.370300,343.284363 815.775574,343.959137 811.604614,345.668091 
	C804.674133,348.507751 798.513794,352.572357 793.841248,358.743286 
	C791.725037,361.538086 789.077393,365.139496 786.085754,365.826141 
	C778.414307,367.586914 772.238037,371.090118 766.977783,376.776611 
	C765.332947,378.554749 763.156860,380.693359 760.993164,380.991425 
	C751.845886,382.251373 745.789062,386.582733 742.828125,395.602264 
	C739.466309,405.843140 741.402100,408.909180 752.183105,408.909637 
	C801.991699,408.911743 851.800293,408.910980 901.608887,408.909119 
	C903.107971,408.909058 904.607361,408.901855 906.106018,408.870300 
	C910.271545,408.782593 911.898987,406.469635 911.970398,402.492706 
	C912.123047,393.990204 902.310425,387.899139 894.482727,392.545258 
	C889.810974,386.209961 883.637451,382.409454 875.689148,381.833649 
	C866.810669,350.819122 847.824341,341.214874 824.774658,342.144867 
M1194.898560,393.222870 
	C1191.247192,395.249847 1187.405029,397.000793 1183.985596,399.363495 
	C1177.649292,403.741791 1174.296509,412.481659 1164.855103,412.358093 
	C1164.522827,412.353729 1164.224487,413.074066 1163.838379,413.359192 
	C1159.971802,416.214478 1156.400635,419.718872 1152.125488,421.701996 
	C1147.833374,423.692932 1142.958496,424.890106 1140.661255,429.200134 
	C1138.923950,432.459442 1137.375122,436.730011 1138.024658,440.112274 
	C1138.778076,444.036346 1143.260620,444.017456 1147.080078,444.007507 
	C1185.221436,443.908203 1223.363281,443.947968 1261.504883,443.944702 
	C1263.003296,443.944580 1264.531616,444.088104 1265.994019,443.848053 
	C1269.123779,443.334167 1272.016357,438.985016 1270.600586,436.481506 
	C1268.504150,432.774292 1266.040405,429.221008 1260.780884,429.751953 
	C1259.064697,429.925171 1257.027222,429.859619 1255.567749,429.088043 
	C1251.017822,426.682251 1246.674194,423.886261 1241.482910,420.782654 
	C1240.895142,419.080750 1239.932007,415.990570 1238.769043,412.977478 
	C1234.007324,400.639679 1219.775269,391.502014 1207.191650,391.184357 
	C1203.380005,391.088135 1199.532227,392.428650 1194.898560,393.222870 
M1010.855957,506.317780 
	C998.760254,519.082031 986.625488,531.809509 974.578003,544.619080 
	C955.769226,564.617554 937.011353,584.664001 918.253113,604.709961 
	C915.144104,608.032349 912.143005,611.455688 909.092041,614.832397 
	C909.420044,615.217224 909.748108,615.602051 910.076172,615.986877 
	C911.308655,615.162842 912.687317,614.493958 913.751953,613.491638 
	C931.746277,596.550171 949.726318,579.593262 967.659546,562.587097 
	C992.468628,539.060486 1017.232910,515.486694 1042.026489,491.943726 
	C1044.098999,489.975739 1044.775757,487.840576 1042.954346,485.393768 
	C1041.208374,483.048340 1039.368164,480.773041 1037.547852,478.439514 
	C1036.120117,479.782166 1035.010620,480.739380 1033.998779,481.790619 
	C1026.364014,489.723572 1018.748535,497.674988 1010.855957,506.317780 
z"/>
<path fill="#FFCA4F" opacity="1.000000" stroke="none" 
	d="
M2173.000000,1179.625000 
	C2154.333984,1180.000000 2135.665039,1179.814087 2117.004395,1180.132446 
	C2112.412354,1180.210693 2110.212402,1178.232300 2109.044189,1174.512329 
	C2104.284180,1159.354614 2099.669189,1144.151489 2094.998291,1128.965942 
	C2092.267578,1120.088745 2090.909668,1110.760132 2084.114502,1103.452393 
	C2078.010498,1096.888306 2070.083252,1096.052856 2062.124756,1095.081177 
	C2058.371582,1094.623047 2054.516357,1095.002686 2050.085449,1095.002686 
	C2050.085449,1123.388916 2050.085449,1151.434937 2050.085449,1179.736450 
	C2030.873047,1179.736450 2012.284424,1179.736450 1993.347412,1179.736450 
	C1993.347412,1105.251221 1993.347412,1030.874146 1993.347412,955.954407 
	C2006.715698,954.626404 2019.927124,952.843994 2033.196167,952.118408 
	C2048.776367,951.266357 2064.453125,950.427307 2080.003906,951.225647 
	C2100.185059,952.261658 2119.923340,956.535217 2136.366943,969.291565 
	C2149.446777,979.438232 2156.128174,993.357239 2158.151855,1009.938049 
	C2159.872803,1024.040405 2158.149170,1037.421143 2150.945557,1049.412231 
	C2145.752197,1058.057129 2138.649658,1065.555054 2131.862061,1074.251831 
	C2141.149902,1085.274048 2146.557861,1099.977539 2150.607666,1115.267578 
	C2153.251221,1125.249023 2154.902344,1135.563477 2158.365967,1145.239014 
	C2162.224365,1156.016846 2167.633545,1166.239502 2172.683838,1176.851929 
	C2173.000000,1177.750000 2173.000000,1178.500000 2173.000000,1179.625000 
M2066.314453,998.000488 
	C2060.951416,998.392700 2055.588623,998.784851 2050.298340,999.171692 
	C2050.298340,1015.710876 2050.298340,1031.622314 2050.298340,1048.000000 
	C2055.710205,1048.000000 2060.936768,1048.643311 2065.935303,1047.850586 
	C2073.633789,1046.629639 2081.545898,1045.333008 2088.699219,1042.425049 
	C2099.612793,1037.988525 2102.256104,1028.339600 2100.953613,1017.439941 
	C2099.869873,1008.370117 2093.519287,1003.591248 2085.618164,1001.179382 
	C2079.721436,999.379333 2073.387939,999.009949 2066.314453,998.000488 
z"/>
<path fill="#22D0C3" opacity="1.000000" stroke="none" 
	d="
M1347.121216,316.292358 
	C1348.752197,320.993500 1350.533081,325.649048 1351.980957,330.405884 
	C1354.492554,338.657013 1356.758667,346.982666 1359.225708,355.247803 
	C1359.675781,356.755737 1360.592529,358.124329 1361.630737,360.147339 
	C1363.147827,365.627777 1364.072021,370.598022 1365.566528,375.390411 
	C1368.024170,383.272217 1370.851318,391.038818 1373.522583,398.854004 
	C1376.166870,407.174408 1378.826050,415.490143 1381.448975,423.817230 
	C1382.667725,427.686005 1383.776855,431.589355 1385.003540,435.455536 
	C1388.928711,447.825653 1392.949219,460.165894 1396.806396,472.557068 
	C1399.125122,480.006226 1401.187622,487.534821 1403.410767,495.014191 
	C1404.005005,497.013245 1404.766602,498.962524 1405.568359,501.271454 
	C1403.072754,503.943176 1400.382202,506.823425 1397.040527,509.819092 
	C1395.979248,509.669403 1395.432861,509.497314 1395.179199,509.125519 
	C1389.593506,500.938751 1384.093506,492.693237 1378.467773,484.534332 
	C1370.999390,473.702881 1363.366821,462.984161 1355.939209,452.125183 
	C1350.439697,444.085052 1345.271729,435.817749 1339.745117,427.796967 
	C1332.279663,416.962006 1324.514404,406.333527 1317.063477,395.488861 
	C1311.456543,387.328156 1306.266724,378.880920 1300.666016,370.715759 
	C1293.223999,359.866150 1285.473267,349.228271 1278.025269,338.382599 
	C1272.513184,330.356201 1267.397949,322.057129 1261.882080,314.033417 
	C1252.783081,300.796875 1243.503174,287.684631 1234.035767,274.143005 
	C1230.670654,277.038788 1227.367065,279.881714 1224.063354,282.724640 
	C1173.430908,323.157501 1125.806152,367.054932 1077.076538,410.793243 
	C1081.470825,421.889862 1086.144897,433.501129 1090.659790,445.174011 
	C1092.996582,451.215454 1094.998291,457.385681 1097.250122,463.461060 
	C1098.984009,468.138641 1101.043701,472.701019 1102.641113,477.421997 
	C1104.104614,481.746887 1105.819092,486.038208 1100.925659,489.910095 
	C1098.135986,492.117432 1096.322754,495.558899 1093.504639,498.621826 
	C1090.208618,494.812378 1087.461426,490.836731 1084.750854,486.836212 
	C1081.379517,481.860565 1078.110229,476.814453 1074.668945,471.888092 
	C1068.253296,462.703613 1061.717773,453.602936 1055.286987,444.428955 
	C1051.876099,439.563202 1048.580200,434.616852 1045.133667,429.562103 
	C1042.000488,431.604523 1039.516602,433.223694 1037.032715,434.842896 
	C1035.484253,435.345001 1033.563477,435.437775 1032.466064,436.435791 
	C1030.296875,438.408386 1028.425171,437.995941 1027.370728,435.883728 
	C1026.500854,434.141327 1026.310303,431.793671 1026.588623,429.823090 
	C1026.840210,428.043274 1028.135010,426.410919 1029.432495,424.270203 
	C1032.083374,420.788818 1033.511841,417.705719 1029.483398,415.047455 
	C1022.588867,410.497925 1015.526062,406.198914 1008.700562,401.549988 
	C995.730286,392.715851 982.849670,383.748840 970.006714,374.730377 
	C968.106079,373.395691 966.614136,371.478912 964.933105,369.831451 
	C969.243286,366.029053 973.512512,362.177673 977.919312,358.490814 
	C978.428528,358.064789 979.781860,358.340637 980.609985,358.649780 
	C990.440186,362.319489 1000.270508,365.991913 1010.049927,369.794312 
	C1021.601807,374.285828 1033.171387,378.744293 1044.599487,383.536346 
	C1050.375122,385.958191 1053.319336,385.403687 1058.100952,380.060211 
	C1069.538696,367.278595 1081.100098,354.607452 1092.532959,341.821564 
	C1107.895874,324.640717 1123.309692,307.502563 1138.464355,290.138977 
	C1149.504028,277.490143 1160.203125,264.542511 1170.962158,251.651428 
	C1174.431885,247.494247 1177.609253,243.093323 1181.219727,238.296753 
	C1183.577515,235.311981 1185.853638,232.971146 1187.551514,230.267258 
	C1188.016113,229.527344 1187.151001,227.111328 1186.208496,226.461029 
	C1178.058960,220.837677 1169.770508,215.414474 1161.487427,209.986664 
	C1153.456543,204.724228 1145.266846,199.696106 1137.356567,194.259964 
	C1126.257202,186.632095 1115.433105,178.603821 1104.335693,170.973145 
	C1096.562500,165.628296 1088.393433,160.857437 1080.645264,155.478592 
	C1069.707397,147.885559 1059.111084,139.799576 1048.147949,132.244492 
	C1040.117310,126.710152 1031.592896,121.894234 1023.535339,116.396515 
	C1009.324219,106.700363 995.293396,96.739754 981.202576,86.867729 
	C971.745422,80.242043 962.315002,73.578140 952.872681,66.931328 
	C955.307007,64.198784 957.624451,61.345169 960.250244,58.810966 
	C960.993103,58.093998 962.790405,57.833225 963.843567,58.172359 
	C974.593567,61.633762 985.261047,65.351151 996.010803,68.813194 
	C1003.257751,71.147118 1010.633789,73.078690 1017.891052,75.382408 
	C1029.601318,79.099648 1041.250610,83.008690 1052.948853,86.764275 
	C1056.633545,87.947243 1060.392822,88.897980 1064.898560,90.011383 
	C1070.330444,91.595749 1074.963379,93.183342 1079.637451,94.638451 
	C1087.660645,97.136230 1095.709595,99.551300 1103.747803,102.001114 
	C1114.582275,105.362396 1125.402588,108.769821 1136.259155,112.058548 
	C1139.804932,113.132668 1143.444336,113.897614 1147.541504,115.157997 
	C1152.807861,117.303474 1157.530151,119.224289 1162.349731,120.857452 
	C1170.575195,123.644699 1178.861816,126.251465 1187.122681,128.934036 
	C1196.403931,131.766357 1205.689697,134.584473 1214.964355,137.438217 
	C1218.521606,138.532761 1222.030273,139.789902 1225.602417,140.831284 
	C1234.210449,143.340881 1242.911133,145.558777 1251.426758,148.345596 
	C1254.199829,149.253082 1255.326294,148.152710 1256.756958,146.447952 
	C1272.889771,127.224457 1288.920410,107.913216 1305.253174,88.860977 
	C1310.715210,82.489532 1316.960938,76.790085 1322.794678,70.436676 
	C1330.786133,64.510010 1338.606934,58.561474 1346.954590,53.478249 
	C1352.633911,50.019947 1359.088135,47.851292 1365.129639,44.967293 
	C1375.173584,40.172729 1385.925171,39.048729 1396.668701,40.222183 
	C1403.382324,40.955479 1410.052490,43.405575 1416.333984,46.053482 
	C1418.500977,46.966988 1420.055908,50.636333 1420.799561,53.346176 
	C1422.268799,58.699650 1423.613037,64.232544 1423.867920,69.744041 
	C1424.404053,81.340820 1421.357300,92.292160 1416.216187,102.676788 
	C1413.100220,108.971245 1410.527222,115.589371 1406.867065,121.543701 
	C1403.477295,127.058212 1398.965576,131.883163 1394.930420,137.360291 
	C1390.007812,142.529297 1385.309814,147.584763 1380.157837,152.125443 
	C1365.664307,164.899353 1351.015137,177.497803 1336.363403,190.091156 
	C1329.347046,196.121796 1322.134155,201.924789 1315.161011,208.003769 
	C1314.347046,208.713348 1313.946899,210.693268 1314.282471,211.804016 
	C1318.167847,224.664749 1322.190308,237.484665 1326.262939,250.287903 
	C1328.955811,258.753326 1331.788452,267.174255 1334.782837,276.320923 
	C1335.967041,280.093414 1336.969360,283.147675 1337.877197,286.229706 
	C1339.198120,290.713654 1340.373779,295.241516 1341.752563,299.707001 
	C1343.466919,305.258698 1345.325195,310.765930 1347.121216,316.292358 
M1396.371948,56.075909 
	C1395.321289,55.606995 1394.263916,54.748062 1393.221436,54.765594 
	C1391.845581,54.788738 1389.376343,55.363605 1389.305664,55.938171 
	C1389.018799,58.273827 1388.562500,61.471695 1389.818604,62.947472 
	C1393.512939,67.288010 1397.994751,70.958504 1402.721924,75.413094 
	C1403.511719,75.115700 1405.377686,74.795258 1406.722290,73.782616 
	C1407.748535,73.009796 1409.009155,70.878410 1408.631592,70.176987 
	C1405.743286,64.810661 1402.588501,59.549240 1396.371948,56.075909 
M1407.483887,98.995087 
	C1408.828857,92.910042 1410.214844,86.832657 1411.358032,80.709938 
	C1411.400635,80.482117 1408.975220,79.277710 1407.886353,79.489029 
	C1406.615479,79.735634 1405.549561,81.038994 1405.458862,81.105339 
	C1406.094482,87.377846 1406.649170,92.852921 1407.483887,98.995087 
M1364.815186,54.665760 
	C1364.314575,55.049664 1363.813965,55.433571 1363.017822,56.044109 
	C1367.838745,56.464088 1372.552246,56.193130 1376.833374,57.424557 
	C1381.893433,58.879986 1383.397339,56.708664 1384.789185,51.124756 
	C1377.767822,52.280445 1371.595215,53.296417 1364.815186,54.665760 
z"/>
<path fill="#FFCA4F" opacity="1.000000" stroke="none" 
	d="
M544.688477,1078.349243 
	C553.435303,1102.829102 562.015747,1126.949707 570.537903,1151.090820 
	C573.543152,1159.603638 576.416016,1168.163574 579.319275,1176.712036 
	C579.620789,1177.599731 579.717346,1178.557129 579.968872,1179.770996 
	C559.364502,1179.770996 539.074463,1179.770996 518.443604,1179.770996 
	C512.014343,1161.287720 505.450592,1142.755615 499.202759,1124.117798 
	C498.180481,1121.068237 497.041595,1119.901489 493.783386,1119.930420 
	C476.953674,1120.080200 460.121307,1120.074097 443.291443,1119.934692 
	C440.098022,1119.908203 438.809601,1120.924683 437.811554,1124.046387 
	C432.361023,1141.093872 426.498688,1158.009644 420.986176,1175.037964 
	C419.797638,1178.709351 418.166718,1180.141235 414.041626,1180.114136 
	C382.380646,1179.906250 350.716797,1179.885254 319.056305,1180.128296 
	C314.502319,1180.163208 312.228058,1178.307739 311.052368,1174.566162 
	C306.290100,1159.410400 301.666351,1144.211304 297.003967,1129.024170 
	C294.278259,1120.145508 292.938324,1110.813110 286.155792,1103.498901 
	C279.928009,1096.783081 271.846100,1095.958008 263.691589,1095.067871 
	C260.086426,1094.674316 256.402588,1095.001343 252.134766,1095.001343 
	C252.134766,1123.339722 252.134766,1151.383789 252.134766,1179.710327 
	C232.927521,1179.710327 214.339920,1179.710327 195.375412,1179.710327 
	C195.375412,1105.315063 195.375412,1030.945068 195.375412,955.973267 
	C208.632782,954.645691 221.832275,952.849243 235.090469,952.119873 
	C250.668671,951.262878 266.343018,950.437744 281.893646,951.222839 
	C302.074951,952.241882 321.735260,956.598755 338.281921,969.213806 
	C348.790588,977.225586 355.474792,988.069153 358.595459,1001.095337 
	C365.334473,1029.224854 356.452911,1054.460571 333.316040,1072.542236 
	C336.902740,1078.701782 341.454803,1084.506714 343.874390,1091.094849 
	C348.836273,1104.604980 352.725800,1118.513428 356.918884,1132.299927 
	C359.680634,1141.380005 362.201569,1150.533325 364.830322,1159.653931 
	C365.296295,1159.700806 365.762268,1159.747803 366.228271,1159.794800 
	C368.476257,1153.424072 370.754669,1147.063965 372.967224,1140.681152 
	C386.352753,1102.065552 399.689087,1063.432861 413.111938,1024.830322 
	C420.983246,1002.193176 429.074005,979.631836 436.823212,956.953369 
	C437.891968,953.825623 439.259827,952.917419 442.382538,952.939331 
	C460.212555,953.064392 478.044678,953.085510 495.874146,952.925354 
	C499.284424,952.894775 500.915100,954.086426 502.009918,957.237183 
	C512.622314,987.777710 523.333923,1018.283875 534.052490,1048.787354 
	C537.480591,1058.543335 541.013916,1068.262207 544.688477,1078.349243 
M263.457092,1048.000000 
	C272.688782,1047.720337 281.838470,1047.160400 290.351746,1042.912720 
	C300.810333,1037.694458 304.146759,1029.037109 303.022400,1017.951904 
	C302.111481,1008.971436 296.196533,1003.885193 288.582794,1001.491943 
	C276.780273,997.782043 264.544800,996.534912 252.304916,999.596436 
	C252.304916,1015.731018 252.304916,1031.639160 252.304916,1048.000000 
	C255.895615,1048.000000 259.187836,1048.000000 263.457092,1048.000000 
M455.107574,1072.990479 
	C464.322418,1072.990479 473.537292,1072.990479 483.570129,1072.990479 
	C478.284302,1057.832275 473.311493,1043.571777 467.866516,1027.957275 
	C462.735809,1043.327026 458.089264,1057.204956 453.520691,1071.108521 
	C453.363800,1071.585815 453.987701,1072.319946 455.107574,1072.990479 
z"/>
<path fill="#FFCA4F" opacity="1.000000" stroke="none" 
	d="
M1677.993164,1180.000000 
	C1663.535400,1180.000000 1649.576050,1180.000000 1635.310547,1180.000000 
	C1635.310547,1104.314453 1635.310547,1029.073608 1635.310547,953.416138 
	C1653.932495,953.416138 1672.636597,953.416138 1691.760498,953.416138 
	C1691.760498,978.319824 1691.760498,1003.236084 1691.760498,1029.780273 
	C1696.702637,1024.007324 1700.765015,1019.427917 1704.643311,1014.697632 
	C1713.093994,1004.390320 1721.442505,993.999207 1729.849121,983.655640 
	C1737.011353,974.843201 1744.213257,966.063049 1751.362061,957.239685 
	C1753.656372,954.407837 1756.139160,952.877136 1760.187988,952.886597 
	C1828.168457,953.045349 1896.149292,953.000000 1964.130127,953.000000 
	C1965.914185,953.000000 1967.698364,953.000000 1969.737305,953.000000 
	C1969.737305,969.792297 1969.737305,986.044922 1969.737305,1002.917114 
	C1940.270752,1002.917114 1910.897461,1002.917114 1881.265747,1002.917114 
	C1881.265747,1014.786682 1881.265747,1026.040405 1881.265747,1037.914551 
	C1909.393066,1037.914551 1937.433594,1037.914551 1965.733154,1037.914551 
	C1965.733154,1054.450806 1965.733154,1070.370117 1965.733154,1086.909546 
	C1937.612061,1086.909546 1909.571533,1086.909546 1881.269287,1086.909546 
	C1881.269287,1101.446167 1881.269287,1115.365967 1881.269287,1129.904907 
	C1912.717285,1129.904907 1944.089966,1129.904907 1975.727905,1129.904907 
	C1975.727905,1146.773193 1975.727905,1163.025879 1975.727905,1180.000000 
	C1973.902466,1180.000000 1972.142700,1180.000000 1970.382812,1180.000000 
	C1902.568604,1180.000000 1834.754395,1179.977905 1766.940308,1180.063232 
	C1763.432739,1180.067627 1761.339966,1179.082764 1759.301880,1176.008789 
	C1745.408813,1155.054199 1731.247681,1134.277100 1717.159302,1113.452148 
	C1711.948486,1105.749512 1706.700439,1098.072144 1701.431885,1090.328247 
	C1695.550049,1096.007812 1691.361450,1101.556152 1691.714111,1110.778564 
	C1692.585571,1133.558105 1692.000000,1156.393555 1692.000000,1180.000000 
	C1687.329590,1180.000000 1682.910522,1180.000000 1677.993164,1180.000000 
M1762.097168,1029.656982 
	C1756.397217,1036.275024 1750.788208,1042.975220 1744.944580,1049.463867 
	C1743.060547,1051.555908 1742.527832,1052.874268 1744.620605,1055.281738 
	C1747.625610,1058.738525 1750.113647,1062.653076 1752.738892,1066.430054 
	C1772.878906,1095.404663 1792.981323,1124.405396 1813.141602,1153.366089 
	C1816.451172,1158.120483 1819.986572,1162.717651 1823.643799,1167.695312 
	C1823.643799,1098.239380 1823.643799,1029.440918 1823.643799,959.614136 
	C1814.553589,969.853149 1806.095459,979.310913 1797.714600,988.836853 
	C1785.942261,1002.217834 1774.227417,1015.649475 1762.097168,1029.656982 
z"/>
<path fill="#FFCA4F" opacity="1.000000" stroke="none" 
	d="
M806.000000,1108.000000 
	C806.000000,1115.462891 806.000000,1122.425659 806.000000,1129.832520 
	C837.702087,1129.832520 868.959961,1129.832520 900.607605,1129.832520 
	C900.607605,1146.651123 900.607605,1163.024902 900.607605,1179.700928 
	C850.277710,1179.700928 800.022888,1179.700928 749.327942,1179.700928 
	C749.327942,1104.789673 749.327942,1029.875610 749.327942,954.961731 
	C748.985779,954.884583 748.643555,954.807495 748.301392,954.730347 
	C744.525574,964.714172 740.737854,974.693481 736.976013,984.682556 
	C725.118530,1016.169067 713.241211,1047.648071 701.428467,1079.151489 
	C691.920776,1104.507324 682.491516,1129.892822 673.036377,1155.268433 
	C670.285828,1162.650146 667.693176,1170.095337 664.707397,1177.380005 
	C664.207886,1178.598755 662.070618,1179.873779 660.677551,1179.887939 
	C643.846375,1180.059448 627.011597,1179.888184 610.181152,1180.089355 
	C606.684875,1180.130981 606.135986,1178.054932 605.323364,1175.684082 
	C598.030762,1154.407104 590.756531,1133.124023 583.418640,1111.862793 
	C571.957703,1078.654907 560.494324,1045.447510 548.946960,1012.269714 
	C542.741638,994.440613 536.348450,976.677063 530.072632,958.872375 
	C529.432434,957.056213 529.016418,955.160950 528.412720,953.003479 
	C548.276733,953.003479 567.768372,952.949158 587.257874,953.127686 
	C588.532104,953.139404 590.533142,954.687988 590.946655,955.935730 
	C600.759094,985.540955 610.435181,1015.191650 620.058411,1044.859253 
	C625.526123,1061.715820 630.853149,1078.617798 636.261536,1095.493530 
	C636.409485,1095.955322 636.763611,1096.350952 637.274170,1097.194824 
	C643.979797,1077.666504 650.406494,1058.788818 656.944092,1039.949585 
	C666.577698,1012.188843 676.326294,984.467834 685.908447,956.689392 
	C686.781250,954.159302 687.730713,952.934631 690.660339,952.938354 
	C757.991638,953.025146 825.322937,953.012512 892.654297,953.025818 
	C893.149963,953.025940 893.645630,953.128662 894.569336,953.230835 
	C894.569336,969.574219 894.569336,985.947998 894.569336,1002.775146 
	C865.356201,1002.775146 836.098083,1002.775146 806.421143,1002.775146 
	C806.421143,1014.589294 806.421143,1025.964478 806.421143,1037.794189 
	C834.329468,1037.794189 862.254456,1037.794189 890.588440,1037.794189 
	C890.588440,1054.278687 890.588440,1070.319214 890.588440,1086.812988 
	C862.651489,1086.812988 834.726501,1086.812988 806.000000,1086.812988 
	C806.000000,1093.990479 806.000000,1100.745239 806.000000,1108.000000 
z"/>
<path fill="#FFCA4F" opacity="1.000000" stroke="none" 
	d="
M1396.000000,1032.018311 
	C1397.006104,1050.989624 1397.977051,1069.481079 1399.031982,1087.968018 
	C1399.615234,1098.188354 1400.375000,1108.398560 1400.991943,1118.617188 
	C1402.027710,1135.771973 1402.978027,1152.932129 1404.051636,1170.084473 
	C1404.243896,1173.154785 1404.857788,1176.198608 1405.333374,1179.666260 
	C1386.257568,1179.666260 1367.874023,1179.666260 1348.969116,1179.666260 
	C1348.305542,1169.825073 1347.574463,1160.148315 1347.016846,1150.461548 
	C1345.952637,1131.975342 1344.901978,1113.487549 1344.013794,1094.992310 
	C1343.505005,1084.394653 1343.287720,1073.781860 1343.018433,1063.173950 
	C1342.906128,1058.750000 1343.000000,1054.320801 1343.000000,1049.015259 
	C1327.007202,1092.470947 1311.337402,1135.048950 1295.533936,1177.990112 
	C1282.094238,1177.990112 1268.619385,1178.073242 1255.150024,1177.840576 
	C1254.006714,1177.820923 1252.351196,1175.887329 1251.859497,1174.511841 
	C1245.505127,1156.739502 1239.287842,1138.917847 1233.098267,1121.087036 
	C1225.904785,1100.363525 1218.772705,1079.618652 1211.485718,1058.511353 
	C1210.970581,1065.740479 1210.349243,1072.536011 1210.033813,1079.345581 
	C1209.573730,1089.279663 1209.450806,1099.229492 1208.974976,1109.162598 
	C1208.057007,1128.322876 1207.038574,1147.478638 1205.953125,1166.630127 
	C1205.712036,1170.882812 1205.019653,1175.109863 1204.497437,1179.677979 
	C1186.673340,1179.677979 1168.753540,1179.677979 1150.018188,1179.677979 
	C1150.018188,1177.198975 1149.831421,1174.602905 1150.055298,1172.042969 
	C1150.599976,1165.816284 1151.531128,1159.619629 1151.951904,1153.386963 
	C1152.764404,1141.348022 1153.233765,1129.286255 1154.024414,1117.245605 
	C1155.279053,1098.141724 1156.669189,1079.046387 1158.024780,1059.949219 
	C1158.655518,1051.064331 1159.295776,1042.179565 1160.009644,1033.301025 
	C1161.291138,1017.364990 1162.663574,1001.436218 1163.929565,985.498962 
	C1164.387573,979.733704 1164.631104,973.951599 1165.005127,968.179382 
	C1165.322998,963.274658 1165.687622,958.372925 1166.064331,953.000000 
	C1168.467041,953.000000 1170.425171,953.000000 1172.383179,953.000000 
	C1190.432251,953.000000 1208.482422,953.096741 1226.529663,952.917664 
	C1230.103760,952.882202 1231.859741,953.979919 1233.046265,957.385132 
	C1246.167480,995.041870 1259.444214,1032.644531 1272.619751,1070.282349 
	C1274.163452,1074.691895 1275.353149,1079.225342 1276.917603,1084.397949 
	C1283.146729,1067.329712 1288.958008,1051.185913 1294.927002,1035.100586 
	C1304.687378,1008.797607 1314.508179,982.516541 1324.486694,956.295898 
	C1325.028931,954.870972 1327.245850,953.156006 1328.696533,953.143860 
	C1349.020020,952.972839 1369.345947,953.073181 1389.671265,953.128235 
	C1389.960571,953.129028 1390.249268,953.396545 1391.091553,953.813538 
	C1391.714600,963.362854 1392.335327,973.215820 1393.005249,983.065369 
	C1393.968262,997.224854 1394.981445,1011.380859 1395.934448,1025.541016 
	C1396.068359,1027.531982 1395.983521,1029.537720 1396.000000,1032.018311 
z"/>
<path fill="#FFCA4F" opacity="1.000000" stroke="none" 
	d="
M1430.000000,1180.000000 
	C1422.188843,1180.000000 1414.877686,1180.000000 1406.728394,1180.000000 
	C1408.311768,1174.858643 1409.592896,1170.214722 1411.165039,1165.671631 
	C1422.433960,1133.107788 1433.725708,1100.551636 1445.082275,1068.018311 
	C1455.303345,1038.737305 1465.629883,1009.493347 1475.879395,980.222351 
	C1478.645264,972.323486 1481.419434,964.423340 1483.939453,956.444763 
	C1484.796753,953.730652 1486.159058,952.927246 1488.909546,952.943970 
	C1506.900879,953.053345 1524.893921,953.085449 1542.884644,952.924927 
	C1546.300415,952.894409 1547.926880,954.098755 1549.011719,957.244812 
	C1555.911133,977.254333 1562.933960,997.221436 1569.958374,1017.187744 
	C1583.352783,1055.260986 1596.758057,1093.330322 1610.194824,1131.388550 
	C1615.547974,1146.550781 1620.999512,1161.678345 1626.394409,1176.825928 
	C1626.659912,1177.571045 1626.811768,1178.356445 1627.142944,1179.595825 
	C1606.405029,1179.595825 1586.043457,1179.595825 1565.368042,1179.595825 
	C1558.983154,1161.208252 1552.424316,1142.669800 1546.190186,1124.022827 
	C1545.149414,1120.909302 1543.864258,1119.910522 1540.690063,1119.936157 
	C1523.865356,1120.072021 1507.038086,1120.080322 1490.213623,1119.930542 
	C1486.954956,1119.901489 1485.784424,1121.050293 1484.801392,1124.121460 
	C1479.347778,1141.162231 1473.486206,1158.072021 1467.978882,1175.096191 
	C1466.778931,1178.805786 1465.078857,1180.255981 1460.982910,1180.114868 
	C1450.832642,1179.765381 1440.662231,1180.000000 1430.000000,1180.000000 
M1516.542358,1033.049927 
	C1515.988647,1031.792358 1515.434937,1030.534912 1514.656738,1028.767456 
	C1511.977295,1036.594238 1509.487793,1043.700195 1507.114380,1050.844727 
	C1504.718140,1058.058228 1502.437256,1065.309937 1500.073364,1072.645752 
	C1510.328003,1072.645752 1520.033691,1072.645752 1530.421387,1072.645752 
	C1525.800537,1059.319214 1521.361450,1046.517090 1516.542358,1033.049927 
z"/>
<path fill="#FFCA4F" opacity="1.000000" stroke="none" 
	d="
M189.000000,989.989502 
	C189.000000,994.453247 189.000000,998.418884 189.000000,1002.820679 
	C167.310425,1002.820679 146.052979,1002.820679 124.180855,1002.820679 
	C124.180855,1061.965942 124.180855,1120.669800 124.180855,1179.685303 
	C104.978653,1179.685303 86.390854,1179.685303 67.183090,1179.685303 
	C67.183090,1121.036255 67.183090,1062.332520 67.183090,1003.184570 
	C45.649284,1003.184570 24.724993,1003.184570 3.402137,1003.184570 
	C3.402137,986.369629 3.402137,969.997437 3.402137,953.310913 
	C65.026810,953.310913 126.609802,953.310913 189.000000,953.310913 
	C189.000000,965.325317 189.000000,977.408325 189.000000,989.989502 
z"/>
<path fill="#FFCA4F" opacity="1.000000" stroke="none" 
	d="
M918.000000,1171.936768 
	C918.000000,1098.828857 918.000000,1026.210815 918.000000,953.296875 
	C937.058472,953.296875 955.646729,953.296875 974.857788,953.296875 
	C974.857788,1012.003845 974.857788,1070.709717 974.857788,1129.859497 
	C1005.729858,1129.859497 1035.986328,1129.859497 1066.619995,1129.859497 
	C1066.619995,1146.675781 1066.619995,1163.048584 1066.619995,1179.712158 
	C1017.257385,1179.712158 968.004883,1179.712158 918.000000,1179.712158 
	C918.000000,1177.274170 918.000000,1174.850342 918.000000,1171.936768 
z"/>
<path fill="#FFFFFE" opacity="1.000000" stroke="none" 
	d="
M1125.000000,699.060608 
	C1072.872192,699.060547 1021.244446,699.063965 969.616638,699.056702 
	C961.508667,699.055542 958.880920,694.180847 961.209229,686.357605 
	C963.134949,679.886963 965.773254,674.500427 971.851379,671.437500 
	C974.397339,670.154541 977.421387,669.857666 980.114624,668.818420 
	C982.455688,667.915039 985.270020,667.137451 986.778809,665.368896 
	C993.250916,657.782715 1000.973145,652.759094 1010.927612,651.028687 
	C1012.746399,650.712463 1014.671997,648.695801 1015.777161,646.970215 
	C1022.399597,636.630066 1031.523315,629.669189 1043.469604,627.067688 
	C1049.948975,625.656738 1056.771484,624.617676 1063.335083,625.037781 
	C1079.082886,626.045715 1091.408203,634.091125 1099.949707,646.999023 
	C1103.977783,653.086182 1105.852295,660.590820 1108.791626,667.414917 
	C1109.180908,668.318665 1110.144409,669.709290 1110.764038,669.669250 
	C1119.884155,669.080139 1125.440674,674.806946 1130.702515,680.852783 
	C1141.693970,675.140259 1148.771240,683.445496 1150.511108,692.270508 
	C1151.063477,695.072327 1146.760010,698.988220 1143.486328,699.031006 
	C1137.491821,699.109192 1131.495483,699.057922 1125.000000,699.060608 
z"/>
<path fill="#FFFEFD" opacity="1.000000" stroke="none" 
	d="
M825.242188,342.131226 
	C847.824341,341.214874 866.810669,350.819122 875.689148,381.833649 
	C883.637451,382.409454 889.810974,386.209961 894.482727,392.545258 
	C902.310425,387.899139 912.123047,393.990204 911.970398,402.492706 
	C911.898987,406.469635 910.271545,408.782593 906.106018,408.870300 
	C904.607361,408.901855 903.107971,408.909058 901.608887,408.909119 
	C851.800293,408.910980 801.991699,408.911743 752.183105,408.909637 
	C741.402100,408.909180 739.466309,405.843140 742.828125,395.602264 
	C745.789062,386.582733 751.845886,382.251373 760.993164,380.991425 
	C763.156860,380.693359 765.332947,378.554749 766.977783,376.776611 
	C772.238037,371.090118 778.414307,367.586914 786.085754,365.826141 
	C789.077393,365.139496 791.725037,361.538086 793.841248,358.743286 
	C798.513794,352.572357 804.674133,348.507751 811.604614,345.668091 
	C815.775574,343.959137 820.370300,343.284363 825.242188,342.131226 
z"/>
<path fill="#FFFEFC" opacity="1.000000" stroke="none" 
	d="
M1195.299805,393.166992 
	C1199.532227,392.428650 1203.380005,391.088135 1207.191650,391.184357 
	C1219.775269,391.502014 1234.007324,400.639679 1238.769043,412.977478 
	C1239.932007,415.990570 1240.895142,419.080750 1241.482910,420.782654 
	C1246.674194,423.886261 1251.017822,426.682251 1255.567749,429.088043 
	C1257.027222,429.859619 1259.064697,429.925171 1260.780884,429.751953 
	C1266.040405,429.221008 1268.504150,432.774292 1270.600586,436.481506 
	C1272.016357,438.985016 1269.123779,443.334167 1265.994019,443.848053 
	C1264.531616,444.088104 1263.003296,443.944580 1261.504883,443.944702 
	C1223.363281,443.947968 1185.221436,443.908203 1147.080078,444.007507 
	C1143.260620,444.017456 1138.778076,444.036346 1138.024658,440.112274 
	C1137.375122,436.730011 1138.923950,432.459442 1140.661255,429.200134 
	C1142.958496,424.890106 1147.833374,423.692932 1152.125488,421.701996 
	C1156.400635,419.718872 1159.971802,416.214478 1163.838379,413.359192 
	C1164.224487,413.074066 1164.522827,412.353729 1164.855103,412.358093 
	C1174.296509,412.481659 1177.649292,403.741791 1183.985596,399.363495 
	C1187.405029,397.000793 1191.247192,395.249847 1195.299805,393.166992 
z"/>
<path fill="#19BEB1" opacity="1.000000" stroke="none" 
	d="
M1224.392578,282.886536 
	C1227.367065,279.881714 1230.670654,277.038788 1234.035767,274.143005 
	C1243.503174,287.684631 1252.783081,300.796875 1261.882080,314.033417 
	C1267.397949,322.057129 1272.513184,330.356201 1278.025269,338.382599 
	C1285.473267,349.228271 1293.223999,359.866150 1300.666016,370.715759 
	C1306.266724,378.880920 1311.456543,387.328156 1317.063477,395.488861 
	C1324.514404,406.333527 1332.279663,416.962006 1339.745117,427.796967 
	C1345.271729,435.817749 1350.439697,444.085052 1355.939209,452.125183 
	C1363.366821,462.984161 1370.999390,473.702881 1378.467773,484.534332 
	C1384.093506,492.693237 1389.593506,500.938751 1395.179199,509.125519 
	C1395.432861,509.497314 1395.979248,509.669403 1396.737305,509.994934 
	C1394.945190,512.359497 1392.804932,514.663574 1390.336060,517.321655 
	C1334.847168,438.828613 1279.784424,360.938507 1224.392578,282.886536 
z"/>
<path fill="#19BEB1" opacity="1.000000" stroke="none" 
	d="
M952.511963,66.944603 
	C962.315002,73.578140 971.745422,80.242043 981.202576,86.867729 
	C995.293396,96.739754 1009.324219,106.700363 1023.535339,116.396515 
	C1031.592896,121.894234 1040.117310,126.710152 1048.147949,132.244492 
	C1059.111084,139.799576 1069.707397,147.885559 1080.645264,155.478592 
	C1088.393433,160.857437 1096.562500,165.628296 1104.335693,170.973145 
	C1115.433105,178.603821 1126.257202,186.632095 1137.356567,194.259964 
	C1145.266846,199.696106 1153.456543,204.724228 1161.487427,209.986664 
	C1169.770508,215.414474 1178.058960,220.837677 1186.208496,226.461029 
	C1187.151001,227.111328 1188.016113,229.527344 1187.551514,230.267258 
	C1185.853638,232.971146 1183.577515,235.311981 1181.193359,237.935684 
	C1175.306152,234.587494 1169.597534,231.304749 1164.214722,227.554428 
	C1153.382324,220.007172 1142.719360,212.216583 1132.001343,204.505585 
	C1117.226318,193.875687 1102.535767,183.126450 1087.674561,172.618774 
	C1076.738159,164.886292 1065.491699,157.592422 1054.554688,149.860809 
	C1041.527466,140.651550 1028.752563,131.086014 1015.738770,121.857391 
	C1004.779968,114.086006 993.608215,106.615616 982.582703,98.937340 
	C973.818115,92.833542 965.121948,86.631210 956.418640,80.439941 
	C954.347778,78.966789 952.539062,77.033295 950.312500,75.890717 
	C946.169189,73.764565 946.357117,71.799057 949.894592,69.325890 
	C950.770508,68.713486 951.405518,67.756477 952.511963,66.944603 
z"/>
<path fill="#FFFDF8" opacity="1.000000" stroke="none" 
	d="
M860.114685,294.340607 
	C866.206726,287.631775 872.262085,280.889191 878.397949,274.220673 
	C894.600037,256.611633 910.771667,238.973755 927.083862,221.467056 
	C937.475525,210.314423 948.168762,199.443192 958.596069,188.323196 
	C971.705688,174.342545 984.762085,160.309357 997.622864,146.100998 
	C999.405457,144.131546 1000.248352,143.982376 1001.811707,145.756927 
	C1002.132324,146.120834 1002.386719,146.559204 1002.754456,146.862839 
	C1005.645203,149.249191 1008.556152,151.611160 1011.460876,153.980637 
	C1008.959045,156.729477 1006.603210,159.630142 1003.930176,162.201050 
	C991.865662,173.804871 979.733154,185.338409 967.584290,196.854172 
	C948.592041,214.856796 929.586731,232.845764 910.549255,250.800629 
	C894.268738,266.155365 877.935303,281.454102 861.046692,296.711487 
	C860.350281,295.877106 860.232483,295.108856 860.114685,294.340607 
z"/>
<path fill="#FFFDF8" opacity="1.000000" stroke="none" 
	d="
M1166.507690,597.888855 
	C1171.855469,591.979614 1177.121826,585.994324 1182.565674,580.174988 
	C1201.748291,559.669067 1221.017822,539.244324 1240.203491,518.741089 
	C1253.304443,504.740356 1266.367798,490.703613 1279.358887,476.600769 
	C1288.717407,466.441223 1298.018921,456.225342 1307.145508,445.858093 
	C1309.553467,443.122772 1311.091309,444.202393 1312.640381,446.251495 
	C1314.588257,448.827637 1316.505127,451.479218 1317.982056,454.332825 
	C1318.545044,455.420685 1318.427246,457.758698 1317.644287,458.508087 
	C1308.616821,467.150208 1299.336914,475.527618 1290.254761,484.113617 
	C1280.677856,493.167267 1271.286865,502.417358 1261.735474,511.498291 
	C1243.719116,528.627136 1225.698608,545.752319 1207.578247,562.770996 
	C1195.059082,574.529175 1182.369385,586.105896 1169.021240,597.907288 
	C1167.693848,597.996887 1167.100708,597.942871 1166.507690,597.888855 
z"/>
<path fill="#FFFCF6" opacity="1.000000" stroke="none" 
	d="
M1010.991455,505.969208 
	C1018.748535,497.674988 1026.364014,489.723572 1033.998779,481.790619 
	C1035.010620,480.739380 1036.120117,479.782166 1037.547852,478.439514 
	C1039.368164,480.773041 1041.208374,483.048340 1042.954346,485.393768 
	C1044.775757,487.840576 1044.098999,489.975739 1042.026489,491.943726 
	C1017.232910,515.486694 992.468628,539.060486 967.659546,562.587097 
	C949.726318,579.593262 931.746277,596.550171 913.751953,613.491638 
	C912.687317,614.493958 911.308655,615.162842 910.076172,615.986877 
	C909.748108,615.602051 909.420044,615.217224 909.092041,614.832397 
	C912.143005,611.455688 915.144104,608.032349 918.253113,604.709961 
	C937.011353,584.664001 955.769226,564.617554 974.578003,544.619080 
	C986.625488,531.809509 998.760254,519.082031 1010.991455,505.969208 
z"/>
<path fill="#FFFCF6" opacity="1.000000" stroke="none" 
	d="
M848.587891,543.494568 
	C853.656372,537.675354 858.554077,531.696167 863.825012,526.066528 
	C880.475037,508.283447 897.272644,490.638550 913.998474,472.926361 
	C930.724670,455.213867 947.444519,437.495361 964.123474,419.738495 
	C965.234558,418.555542 965.976440,417.025787 967.094910,415.350403 
	C970.133423,417.338715 973.379028,419.133362 976.120300,421.509857 
	C976.733154,422.041107 976.143372,425.204193 975.149719,426.157745 
	C959.444031,441.229218 943.555115,456.109375 927.763367,471.091492 
	C912.314697,485.748047 896.928650,500.470551 881.514893,515.163940 
	C872.214172,524.029968 862.933105,532.916687 853.584595,541.731934 
	C852.536743,542.720032 851.105591,543.301636 849.355469,543.944946 
	C848.858826,543.818115 848.587891,543.494568 848.587891,543.494568 
z"/>
<path fill="#18BDB1" opacity="1.000000" stroke="none" 
	d="
M1103.874023,101.658173 
	C1095.709595,99.551300 1087.660645,97.136230 1079.637451,94.638451 
	C1074.963379,93.183342 1070.330444,91.595749 1065.289307,90.015572 
	C1070.401733,78.813011 1078.161377,69.385277 1087.118408,60.875168 
	C1088.141357,59.903187 1089.228394,58.998722 1090.701660,58.371582 
	C1096.760864,64.403992 1102.477539,70.057800 1108.021606,75.876251 
	C1111.679443,79.715134 1115.088745,83.790771 1118.609375,87.760384 
	C1113.739746,92.278671 1108.870117,96.796959 1103.874023,101.658173 
z"/>
<path fill="#17BDB1" opacity="1.000000" stroke="none" 
	d="
M1373.722656,398.539795 
	C1370.851318,391.038818 1368.024170,383.272217 1365.566528,375.390411 
	C1364.072021,370.598022 1363.147827,365.627777 1361.947754,360.309875 
	C1366.437134,354.971283 1370.946533,350.060272 1376.081177,345.090546 
	C1380.142212,348.299835 1383.672974,351.474426 1386.992432,354.856445 
	C1392.854248,360.828705 1398.587524,366.927338 1404.374634,372.973083 
	C1398.336914,378.722168 1392.502197,384.708038 1386.183960,390.130188 
	C1382.496704,393.294434 1378.035645,395.557190 1373.722656,398.539795 
z"/>
<path fill="#18BDB1" opacity="1.000000" stroke="none" 
	d="
M1187.083740,128.580353 
	C1178.861816,126.251465 1170.575195,123.644699 1162.349731,120.857452 
	C1157.530151,119.224289 1152.807861,117.303474 1147.951050,115.123993 
	C1152.627686,107.898247 1157.240356,100.944420 1162.238892,94.280121 
	C1164.232544,91.622063 1167.078735,89.603569 1170.152832,87.105850 
	C1174.502686,90.558495 1178.214966,94.221802 1181.975586,97.834709 
	C1187.629150,103.266006 1193.316528,108.662018 1198.989502,114.073051 
	C1196.641235,117.094688 1194.360596,120.172226 1191.919800,123.117226 
	C1190.421509,124.925255 1188.678101,126.530403 1187.083740,128.580353 
z"/>
<path fill="#18BDB1" opacity="1.000000" stroke="none" 
	d="
M1347.494507,316.249054 
	C1345.325195,310.765930 1343.466919,305.258698 1341.752563,299.707001 
	C1340.373779,295.241516 1339.198120,290.713654 1337.877197,286.229706 
	C1336.969360,283.147675 1335.967041,280.093414 1335.004395,276.649139 
	C1339.413574,272.227173 1343.825439,268.182770 1348.729980,264.437866 
	C1358.405518,273.963470 1367.588257,283.189545 1376.770996,292.415619 
	C1368.753418,302.309998 1358.972168,310.061615 1347.494507,316.249054 
z"/>
<path fill="#1BBEB1" opacity="1.000000" stroke="none" 
	d="
M1037.439941,434.784485 
	C1039.516602,433.223694 1042.000488,431.604523 1045.133667,429.562103 
	C1048.580200,434.616852 1051.876099,439.563202 1055.286987,444.428955 
	C1061.717773,453.602936 1068.253296,462.703613 1074.668945,471.888092 
	C1078.110229,476.814453 1081.379517,481.860565 1084.750854,486.836212 
	C1087.461426,490.836731 1090.208618,494.812378 1093.254150,498.888000 
	C1092.390015,500.648621 1091.211426,502.320221 1089.641113,504.547302 
	C1084.144531,496.911835 1078.929810,489.721497 1073.771851,482.490784 
	C1065.930664,471.498566 1058.114624,460.488373 1050.317383,449.464996 
	C1047.278442,445.168823 1044.406494,440.750854 1041.256226,436.539673 
	C1040.558594,435.607025 1039.006104,435.313751 1037.439941,434.784485 
z"/>
<path fill="#1BBEB1" opacity="1.000000" stroke="none" 
	d="
M964.570923,369.854919 
	C966.614136,371.478912 968.106079,373.395691 970.006714,374.730377 
	C982.849670,383.748840 995.730286,392.715851 1008.700562,401.549988 
	C1015.526062,406.198914 1022.588867,410.497925 1029.483398,415.047455 
	C1033.511841,417.705719 1032.083374,420.788818 1029.551514,423.901001 
	C1025.511963,421.019165 1021.931580,417.903168 1018.097656,415.138580 
	C1008.412292,408.154633 998.663757,401.255280 988.844849,394.460266 
	C979.114990,387.726929 969.268066,381.162811 958.807251,374.073700 
	C960.868164,372.472992 962.538452,371.175690 964.570923,369.854919 
z"/>
<path fill="#F8B42C" opacity="1.000000" stroke="none" 
	d="
M1376.957153,292.089020 
	C1367.588257,283.189545 1358.405518,273.963470 1349.081787,264.422119 
	C1352.375732,257.627045 1357.297363,256.686920 1362.300781,261.639435 
	C1368.152466,267.431549 1373.942383,273.286011 1379.747192,279.125244 
	C1383.831421,283.233643 1383.827026,284.499237 1379.801147,288.835754 
	C1378.904663,289.801483 1378.028687,290.786377 1376.957153,292.089020 
z"/>
<path fill="#F5B42E" opacity="1.000000" stroke="none" 
	d="
M1118.852539,87.597748 
	C1115.088745,83.790771 1111.679443,79.715134 1108.021606,75.876251 
	C1102.477539,70.057800 1096.760864,64.403992 1091.056152,58.330570 
	C1095.398193,51.324181 1098.902832,50.906944 1104.332764,56.360378 
	C1110.360840,62.414364 1116.162720,68.726913 1122.554077,74.370949 
	C1125.560425,77.025795 1124.823853,79.104103 1123.329712,81.591728 
	C1122.095825,83.646095 1120.520020,85.495102 1118.852539,87.597748 
z"/>
<path fill="#F8B42C" opacity="1.000000" stroke="none" 
	d="
M1199.363525,114.039192 
	C1193.316528,108.662018 1187.629150,103.266006 1181.975586,97.834709 
	C1178.214966,94.221802 1174.502686,90.558495 1170.412476,86.868240 
	C1172.841064,84.997780 1175.462158,82.778954 1178.484741,81.536682 
	C1179.839478,80.979836 1182.502197,81.844444 1183.707764,82.980431 
	C1189.933105,88.845779 1195.908691,94.978607 1201.912109,101.076241 
	C1206.495483,105.731339 1205.680786,110.363411 1199.363525,114.039192 
z"/>
<path fill="#F5B42E" opacity="1.000000" stroke="none" 
	d="
M1404.697021,372.911621 
	C1398.587524,366.927338 1392.854248,360.828705 1386.992432,354.856445 
	C1383.672974,351.474426 1380.142212,348.299835 1376.380615,344.890930 
	C1381.928711,338.178162 1385.636963,336.975250 1390.752563,342.345123 
	C1397.432495,349.357391 1404.705078,355.805206 1412.180054,362.932007 
	C1409.447144,366.717316 1407.233276,369.783752 1404.697021,372.911621 
z"/>
<path fill="#FFF0CC" opacity="1.000000" stroke="none" 
	d="
M859.774841,294.382080 
	C860.232483,295.108856 860.350281,295.877106 860.721558,296.811035 
	C856.689270,302.211121 852.252441,307.264282 846.260986,310.452209 
	C845.919189,310.083679 845.577393,309.715149 845.235596,309.346588 
	C849.968750,304.372253 854.701904,299.397888 859.774841,294.382080 
z"/>
<path fill="#FFF0CC" opacity="1.000000" stroke="none" 
	d="
M1166.195557,597.962280 
	C1167.100708,597.942871 1167.693848,597.996887 1168.731201,598.084106 
	C1166.486816,600.802368 1163.798096,603.487427 1160.616699,606.134521 
	C1160.123901,606.096558 1159.832764,605.824158 1159.832764,605.824158 
	C1161.849731,603.228027 1163.866577,600.631897 1166.195557,597.962280 
z"/>
<path fill="#FFF0CC" opacity="1.000000" stroke="none" 
	d="
M847.645752,546.892456 
	C846.387512,547.952698 845.129272,549.012878 843.385376,549.971313 
	C842.899841,549.869507 842.638306,549.557129 842.638306,549.557129 
	C843.535034,548.435608 844.431763,547.314026 845.766296,546.277954 
	C846.684692,546.539795 847.165222,546.716125 847.645752,546.892456 
z"/>
<path fill="#FFF0CC" opacity="1.000000" stroke="none" 
	d="
M837.017090,556.017090 
	C837.695068,554.979248 838.373108,553.941406 839.489746,552.920898 
	C839.928406,552.938232 840.084290,553.085999 840.084229,553.085999 
	C839.281799,554.043274 838.479370,555.000610 837.339478,555.980042 
	C837.002136,556.002136 837.017090,556.017090 837.017090,556.017090 
z"/>
<path fill="#FFFCF6" opacity="1.000000" stroke="none" 
	d="
M847.884888,546.666138 
	C847.165222,546.716125 846.684692,546.539795 846.065186,546.138367 
	C846.616455,545.195618 847.306763,544.477905 848.292480,543.627380 
	C848.587891,543.494568 848.858826,543.818115 848.999023,543.976440 
	C848.800842,544.903076 848.462402,545.671387 847.884888,546.666138 
z"/>
<path fill="#FFF0CC" opacity="1.000000" stroke="none" 
	d="
M843.038208,550.019043 
	C842.370667,551.118713 841.564697,552.068909 840.421509,553.052551 
	C840.084290,553.085999 839.928406,552.938232 839.842529,552.865723 
	C840.505737,551.800476 841.254700,550.807739 842.320984,549.686035 
	C842.638306,549.557129 842.899841,549.869507 843.038208,550.019043 
z"/>
<path fill="#FFF0CC" opacity="1.000000" stroke="none" 
	d="
M1154.027832,612.025513 
	C1154.771851,611.023254 1155.515869,610.020935 1156.651611,609.033813 
	C1157.043335,609.048950 1157.135254,609.154602 1157.135254,609.154602 
	C1156.321411,610.116516 1155.507568,611.078369 1154.345215,612.018311 
	C1153.996704,611.996277 1154.027954,612.025574 1154.027832,612.025513 
z"/>
<path fill="#FFF0CC" opacity="1.000000" stroke="none" 
	d="
M834.035522,559.032349 
	C834.785522,558.015747 835.535522,556.999084 836.651306,555.999756 
	C837.017090,556.017090 837.002136,556.002136 836.995483,555.995239 
	C836.212891,556.964783 835.436890,557.941162 834.331055,558.958496 
	C834.001160,558.999451 834.035522,559.032349 834.035522,559.032349 
z"/>
<path fill="#FFF0CC" opacity="1.000000" stroke="none" 
	d="
M833.985107,558.981812 
	C833.187317,559.898865 832.405518,560.833435 831.312622,561.884033 
	C831.001526,562.000000 831.023682,562.017456 831.023682,562.017456 
	C831.789001,561.029785 832.554321,560.042175 833.677612,559.043457 
	C834.035522,559.032349 834.001160,558.999451 833.985107,558.981812 
z"/>
<path fill="#FFF0CC" opacity="1.000000" stroke="none" 
	d="
M830.993530,561.988647 
	C830.441345,562.838623 829.897217,563.699890 829.353088,564.561157 
	C829.056030,564.271545 828.758911,563.981995 828.461792,563.692383 
	C829.105835,563.188538 829.749878,562.684692 830.708801,562.099121 
	C831.023682,562.017456 831.001526,562.000000 830.993530,561.988647 
z"/>
<path fill="#FFF0CC" opacity="1.000000" stroke="none" 
	d="
M1156.995117,608.998047 
	C1157.686157,607.944641 1158.425293,606.942078 1159.498535,605.881836 
	C1159.832764,605.824158 1160.123901,606.096558 1160.279663,606.227783 
	C1159.565186,607.276978 1158.694946,608.194885 1157.479980,609.133667 
	C1157.135254,609.154602 1157.043335,609.048950 1156.995117,608.998047 
z"/>
<path fill="#FFF0CC" opacity="1.000000" stroke="none" 
	d="
M1147.974609,617.978333 
	C1147.564697,618.924500 1147.154907,619.870605 1146.744995,620.816772 
	C1146.322266,620.548462 1145.899414,620.280151 1145.476685,620.011841 
	C1146.123657,619.414429 1146.770630,618.816956 1147.707764,618.109253 
	C1147.997803,617.998962 1147.974609,617.978333 1147.974609,617.978333 
z"/>
<path fill="#FFF0CC" opacity="1.000000" stroke="none" 
	d="
M1148.007324,618.010986 
	C1148.799927,617.064453 1149.583008,616.105896 1150.683105,615.074463 
	C1151.000122,615.001587 1150.970215,614.972534 1150.970215,614.972534 
	C1150.210693,615.948669 1149.451294,616.924866 1148.333252,617.939697 
	C1147.974609,617.978333 1147.997803,617.998962 1148.007324,618.010986 
z"/>
<path fill="#FFF0CC" opacity="1.000000" stroke="none" 
	d="
M1151.013916,615.017212 
	C1151.799072,614.050049 1152.570312,613.067261 1153.684692,612.055054 
	C1154.027954,612.025574 1153.996704,611.996277 1153.981201,611.980896 
	C1153.211548,612.963867 1152.457153,613.962219 1151.336426,614.966553 
	C1150.970215,614.972534 1151.000122,615.001587 1151.013916,615.017212 
z"/>
<path fill="#FFFFFF" opacity="1.000000" stroke="none" 
	d="
M2066.781738,998.001953 
	C2073.387939,999.009949 2079.721436,999.379333 2085.618164,1001.179382 
	C2093.519287,1003.591248 2099.869873,1008.370117 2100.953613,1017.439941 
	C2102.256104,1028.339600 2099.612793,1037.988525 2088.699219,1042.425049 
	C2081.545898,1045.333008 2073.633789,1046.629639 2065.935303,1047.850586 
	C2060.936768,1048.643311 2055.710205,1048.000000 2050.298340,1048.000000 
	C2050.298340,1031.622314 2050.298340,1015.710876 2050.298340,999.171692 
	C2055.588623,998.784851 2060.951416,998.392700 2066.781738,998.001953 
z"/>
<path fill="#F3FCFC" opacity="1.000000" stroke="none" 
	d="
M1396.592651,56.368423 
	C1402.588501,59.549240 1405.743286,64.810661 1408.631592,70.176987 
	C1409.009155,70.878410 1407.748535,73.009796 1406.722290,73.782616 
	C1405.377686,74.795258 1403.511719,75.115700 1402.721924,75.413094 
	C1397.994751,70.958504 1393.512939,67.288010 1389.818604,62.947472 
	C1388.562500,61.471695 1389.018799,58.273827 1389.305664,55.938171 
	C1389.376343,55.363605 1391.845581,54.788738 1393.221436,54.765594 
	C1394.263916,54.748062 1395.321289,55.606995 1396.592651,56.368423 
z"/>
<path fill="#E2F9F7" opacity="1.000000" stroke="none" 
	d="
M1407.343994,98.661545 
	C1406.649170,92.852921 1406.094482,87.377846 1405.458862,81.105339 
	C1405.549561,81.038994 1406.615479,79.735634 1407.886353,79.489029 
	C1408.975220,79.277710 1411.400635,80.482117 1411.358032,80.709938 
	C1410.214844,86.832657 1408.828857,92.910042 1407.343994,98.661545 
z"/>
<path fill="#E2F9F7" opacity="1.000000" stroke="none" 
	d="
M1365.118896,54.489075 
	C1371.595215,53.296417 1377.767822,52.280445 1384.789185,51.124756 
	C1383.397339,56.708664 1381.893433,58.879986 1376.833374,57.424557 
	C1372.552246,56.193130 1367.838745,56.464088 1363.017822,56.044109 
	C1363.813965,55.433571 1364.314575,55.049664 1365.118896,54.489075 
z"/>
<path fill="#FFFFFF" opacity="1.000000" stroke="none" 
	d="
M262.968567,1048.000000 
	C259.187836,1048.000000 255.895615,1048.000000 252.304916,1048.000000 
	C252.304916,1031.639160 252.304916,1015.731018 252.304916,999.596436 
	C264.544800,996.534912 276.780273,997.782043 288.582794,1001.491943 
	C296.196533,1003.885193 302.111481,1008.971436 303.022400,1017.951904 
	C304.146759,1029.037109 300.810333,1037.694458 290.351746,1042.912720 
	C281.838470,1047.160400 272.688782,1047.720337 262.968567,1048.000000 
z"/>
<path fill="#FFFFFF" opacity="1.000000" stroke="none" 
	d="
M454.677643,1072.962402 
	C453.987701,1072.319946 453.363800,1071.585815 453.520691,1071.108521 
	C458.089264,1057.204956 462.735809,1043.327026 467.866516,1027.957275 
	C473.311493,1043.571777 478.284302,1057.832275 483.570129,1072.990479 
	C473.537292,1072.990479 464.322418,1072.990479 454.677643,1072.962402 
z"/>
<path fill="#FFFFFF" opacity="1.000000" stroke="none" 
	d="
M1762.292603,1029.358154 
	C1774.227417,1015.649475 1785.942261,1002.217834 1797.714600,988.836853 
	C1806.095459,979.310913 1814.553589,969.853149 1823.643799,959.614136 
	C1823.643799,1029.440918 1823.643799,1098.239380 1823.643799,1167.695312 
	C1819.986572,1162.717651 1816.451172,1158.120483 1813.141602,1153.366089 
	C1792.981323,1124.405396 1772.878906,1095.404663 1752.738892,1066.430054 
	C1750.113647,1062.653076 1747.625610,1058.738525 1744.620605,1055.281738 
	C1742.527832,1052.874268 1743.060547,1051.555908 1744.944580,1049.463867 
	C1750.788208,1042.975220 1756.397217,1036.275024 1762.292603,1029.358154 
z"/>
<path fill="#FFFFFF" opacity="1.000000" stroke="none" 
	d="
M1516.732422,1033.382446 
	C1521.361450,1046.517090 1525.800537,1059.319214 1530.421387,1072.645752 
	C1520.033691,1072.645752 1510.328003,1072.645752 1500.073364,1072.645752 
	C1502.437256,1065.309937 1504.718140,1058.058228 1507.114380,1050.844727 
	C1509.487793,1043.700195 1511.977295,1036.594238 1514.656738,1028.767456 
	C1515.434937,1030.534912 1515.988647,1031.792358 1516.732422,1033.382446 
z"/>
</svg>