<svg width="21" height="20" viewBox="0 0 21 20" fill="none" xmlns="http://www.w3.org/2000/svg">
<path d="M9.6092 7.51849C8.0484 7.51849 6.77466 8.79222 6.77466 10.353C6.77466 11.9138 8.0484 13.1876 9.6092 13.1876C11.17 13.1876 12.4437 11.9138 12.4437 10.353C12.4437 8.79222 11.17 7.51849 9.6092 7.51849ZM18.1107 10.353C18.1107 9.17923 18.1213 8.01607 18.0554 6.84441C17.9895 5.48349 17.679 4.27567 16.6839 3.2805C15.6866 2.2832 14.4809 1.97487 13.1199 1.90895C11.9462 1.84303 10.783 1.85366 9.61133 1.85366C8.43753 1.85366 7.27437 1.84303 6.10271 1.90895C4.74179 1.97487 3.53397 2.28533 2.5388 3.2805C1.5415 4.2778 1.23317 5.48349 1.16725 6.84441C1.10133 8.0182 1.11196 9.18136 1.11196 10.353C1.11196 11.5247 1.10133 12.69 1.16725 13.8616C1.23317 15.2226 1.54363 16.4304 2.5388 17.4256C3.5361 18.4229 4.74179 18.7312 6.10271 18.7971C7.2765 18.863 8.43966 18.8524 9.61133 18.8524C10.7851 18.8524 11.9483 18.863 13.1199 18.7971C14.4809 18.7312 15.6887 18.4207 16.6839 17.4256C17.6812 16.4283 17.9895 15.2226 18.0554 13.8616C18.1235 12.69 18.1107 11.5268 18.1107 10.353ZM9.6092 14.7143C7.1957 14.7143 5.24788 12.7665 5.24788 10.353C5.24788 7.93952 7.1957 5.99171 9.6092 5.99171C12.0227 5.99171 13.9705 7.93952 13.9705 10.353C13.9705 12.7665 12.0227 14.7143 9.6092 14.7143ZM14.1491 6.83165C13.5856 6.83165 13.1306 6.37659 13.1306 5.81308C13.1306 5.24958 13.5856 4.79452 14.1491 4.79452C14.7127 4.79452 15.1677 5.24958 15.1677 5.81308C15.1679 5.94689 15.1416 6.07942 15.0905 6.20307C15.0394 6.32672 14.9644 6.43908 14.8698 6.53369C14.7751 6.62831 14.6628 6.70333 14.5391 6.75446C14.4155 6.80558 14.283 6.83182 14.1491 6.83165Z" fill="white"/>
</svg>
