<svg width="21" height="20" viewBox="0 0 21 20" fill="none" xmlns="http://www.w3.org/2000/svg">
<g clip-path="url(#clip0_21524_10032)">
<path d="M19.8142 4.11415C19.1184 4.42248 18.3709 4.63082 17.5851 4.72498C18.3959 4.23981 19.0025 3.4762 19.2917 2.57665C18.5299 3.02914 17.6962 3.34765 16.8267 3.51832C16.2421 2.89404 15.4676 2.48025 14.6237 2.34121C13.7797 2.20217 12.9135 2.34564 12.1594 2.74936C11.4054 3.15308 10.8057 3.79445 10.4535 4.5739C10.1014 5.35335 10.0164 6.22727 10.2117 7.05998C8.66815 6.98248 7.1581 6.58127 5.7796 5.8824C4.4011 5.18353 3.18495 4.20262 2.21008 3.00332C1.87674 3.57832 1.68508 4.24498 1.68508 4.95498C1.68471 5.59415 1.84211 6.22352 2.14331 6.78726C2.44452 7.351 2.88021 7.83168 3.41174 8.18665C2.79531 8.16704 2.19247 8.00047 1.65341 7.70082V7.75082C1.65335 8.64727 1.96344 9.51613 2.53106 10.21C3.09869 10.9038 3.88889 11.3799 4.76758 11.5575C4.19573 11.7122 3.59619 11.735 3.01424 11.6242C3.26216 12.3955 3.74507 13.07 4.39538 13.5533C5.04569 14.0365 5.83084 14.3043 6.64091 14.3192C5.26577 15.3987 3.56748 15.9842 1.81924 15.9816C1.50956 15.9817 1.20014 15.9636 0.892578 15.9275C2.66714 17.0685 4.73286 17.674 6.84258 17.6716C13.9842 17.6716 17.8884 11.7566 17.8884 6.62665C17.8884 6.45998 17.8842 6.29165 17.8767 6.12498C18.6362 5.57579 19.2917 4.89573 19.8126 4.11665L19.8142 4.11415Z" fill="white"/>
</g>
<defs>
<clipPath id="clip0_21524_10032">
<rect width="20" height="20" fill="white" transform="translate(0.111328)"/>
</clipPath>
</defs>
</svg>
