<svg width="21" height="20" viewBox="0 0 21 20" fill="none" xmlns="http://www.w3.org/2000/svg">
<g clip-path="url(#clip0_21524_10034)">
<path d="M19.6942 5.4224C19.581 5.01843 19.3604 4.65269 19.0559 4.36407C18.7428 4.06657 18.359 3.85376 17.9409 3.74573C16.3759 3.33323 10.1059 3.33323 10.1059 3.33323C7.49197 3.30349 4.87872 3.4343 2.28087 3.7249C1.86269 3.84091 1.47967 4.05847 1.16587 4.35823C0.857533 4.6549 0.634199 5.02073 0.517533 5.42157C0.237277 6.93135 0.101109 8.46435 0.110866 9.9999C0.100866 11.5341 0.236699 13.0666 0.517533 14.5782C0.631699 14.9774 0.854199 15.3416 1.16337 15.6357C1.47253 15.9299 1.85753 16.1424 2.28087 16.2549C3.8667 16.6666 10.1059 16.6666 10.1059 16.6666C12.7231 16.6963 15.3397 16.5655 17.9409 16.2749C18.359 16.1669 18.7428 15.9541 19.0559 15.6566C19.3603 15.368 19.5806 15.0022 19.6934 14.5982C19.9809 13.089 20.1208 11.5554 20.1109 10.0191C20.1325 8.47624 19.9928 6.93537 19.6942 5.42157V5.4224ZM8.11253 12.8532V7.1474L13.3292 10.0007L8.11253 12.8532Z" fill="white"/>
</g>
<defs>
<clipPath id="clip0_21524_10034">
<rect width="20" height="20" fill="white" transform="translate(0.111328)"/>
</clipPath>
</defs>
</svg>
